<?xml version="1.0" encoding="utf-8"?>
<!-- Generator: Adobe Illustrator 17.0.0, SVG Export Plug-In . SVG Version: 6.00 Build 0)  -->
<!DOCTYPE svg PUBLIC "-//W3C//DTD SVG 1.1//EN" "http://www.w3.org/Graphics/SVG/1.1/DTD/svg11.dtd">
<svg version="1.1" id="Layer_1" xmlns="http://www.w3.org/2000/svg" xmlns:xlink="http://www.w3.org/1999/xlink" x="0px" y="0px"
	 width="900px" height="800px" viewBox="-28.711 -26.38 900 800" enable-background="new -28.711 -26.38 900 800"
	 xml:space="preserve">
<circle display="none" fill="#353E46" cx="408.009" cy="357.114" r="341.803"/>
<g enable-background="new    ">
	<path fill="#EAEAEA" d="M3.237,688.766c0-4.278,0.753-8.541,2.257-12.788c1.505-4.245,3.693-8.039,6.569-11.384
		c2.874-3.343,6.419-6.067,10.632-8.174c4.212-2.106,8.992-3.159,14.342-3.159c6.352,0,11.785,1.438,16.299,4.313
		c4.513,2.876,7.839,6.619,9.979,11.233l-5.517,3.41c-1.138-2.34-2.524-4.313-4.162-5.918c-1.64-1.604-3.395-2.908-5.266-3.911
		c-1.873-1.003-3.812-1.721-5.817-2.156c-2.006-0.435-3.979-0.652-5.918-0.652c-4.279,0-8.058,0.87-11.333,2.607
		c-3.276,1.74-6.035,4.013-8.274,6.82c-2.241,2.809-3.929,5.968-5.065,9.479c-1.138,3.51-1.704,7.07-1.704,10.682
		c0,3.945,0.685,7.723,2.056,11.333c1.369,3.61,3.242,6.805,5.616,9.578c2.373,2.775,5.182,4.982,8.425,6.62
		c3.243,1.639,6.771,2.457,10.582,2.457c2.006,0,4.062-0.251,6.168-0.752c2.106-0.502,4.145-1.305,6.118-2.407
		c1.972-1.104,3.794-2.474,5.466-4.112c1.671-1.638,3.075-3.626,4.213-5.968l5.816,3.009c-1.138,2.675-2.742,5.032-4.813,7.071
		c-2.073,2.04-4.381,3.761-6.921,5.165c-2.542,1.404-5.232,2.475-8.073,3.209c-2.843,0.735-5.635,1.104-8.375,1.104
		c-4.882,0-9.362-1.068-13.439-3.209c-4.08-2.14-7.59-4.931-10.531-8.375c-2.943-3.443-5.233-7.354-6.87-11.734
		C4.056,697.777,3.237,693.314,3.237,688.766z"/>
	<path fill="#EAEAEA" d="M76.754,724.873v-71.21h30.089c3.074,0,5.9,0.651,8.475,1.955c2.573,1.304,4.797,3.009,6.67,5.115
		c1.871,2.106,3.325,4.498,4.363,7.172c1.035,2.675,1.555,5.383,1.555,8.123c0,2.608-0.386,5.1-1.154,7.473
		c-0.769,2.374-1.84,4.514-3.209,6.419c-1.371,1.905-3.026,3.511-4.965,4.814c-1.94,1.304-4.112,2.19-6.52,2.657l17.452,27.481
		h-7.924l-16.749-26.277H83.774v26.277H76.754z M83.774,692.377h23.269c2.072,0,3.962-0.451,5.667-1.354
		c1.705-0.903,3.159-2.122,4.363-3.661c1.203-1.537,2.139-3.275,2.808-5.216c0.668-1.938,1.003-3.977,1.003-6.118
		c0-2.139-0.385-4.194-1.153-6.168c-0.77-1.972-1.805-3.693-3.109-5.165c-1.304-1.47-2.843-2.641-4.613-3.511
		c-1.772-0.868-3.628-1.304-5.566-1.304H83.774V692.377z"/>
	<path fill="#EAEAEA" d="M142.247,724.873v-71.21h7.021v71.21H142.247z"/>
	<path fill="#EAEAEA" d="M208.742,667.002c-2.006-2.272-4.682-4.112-8.024-5.516c-3.344-1.404-7.155-2.106-11.434-2.106
		c-6.285,0-10.866,1.188-13.74,3.561c-2.876,2.374-4.313,5.601-4.313,9.679c0,2.141,0.384,3.896,1.153,5.265
		c0.768,1.372,1.955,2.558,3.561,3.561c1.604,1.003,3.66,1.873,6.168,2.608c2.508,0.736,5.466,1.472,8.876,2.206
		c3.812,0.803,7.237,1.705,10.28,2.708c3.042,1.003,5.633,2.257,7.773,3.762c2.139,1.504,3.776,3.326,4.914,5.466
		c1.137,2.141,1.705,4.814,1.705,8.023c0,3.277-0.636,6.118-1.905,8.525c-1.271,2.407-3.044,4.413-5.315,6.018
		c-2.274,1.604-4.982,2.793-8.124,3.561c-3.144,0.768-6.587,1.153-10.331,1.153c-11.032,0-20.561-3.442-28.584-10.33l3.51-5.717
		c1.27,1.338,2.791,2.607,4.563,3.811c1.771,1.204,3.744,2.257,5.918,3.16c2.172,0.902,4.496,1.604,6.971,2.105
		c2.473,0.502,5.08,0.753,7.823,0.753c5.682,0,10.112-1.019,13.289-3.06c3.175-2.039,4.764-5.131,4.764-9.277
		c0-2.206-0.451-4.062-1.354-5.566c-0.903-1.504-2.257-2.809-4.063-3.911c-1.805-1.104-4.046-2.057-6.72-2.858
		c-2.675-0.803-5.784-1.605-9.327-2.407c-3.746-0.868-7.021-1.771-9.829-2.708c-2.809-0.936-5.183-2.106-7.121-3.511
		c-1.94-1.404-3.395-3.092-4.363-5.064c-0.97-1.972-1.454-4.396-1.454-7.271c0-3.275,0.617-6.201,1.855-8.776
		c1.236-2.573,2.992-4.714,5.266-6.419c2.272-1.705,4.947-3.009,8.023-3.911c3.075-0.903,6.485-1.354,10.23-1.354
		c4.747,0,8.977,0.72,12.688,2.156c3.711,1.438,7.071,3.461,10.08,6.068L208.742,667.002z"/>
	<path fill="#EAEAEA" d="M227.998,724.873v-71.21h29.487c3.075,0,5.9,0.651,8.476,1.955c2.573,1.304,4.797,3.009,6.669,5.115
		c1.871,2.106,3.343,4.498,4.413,7.172c1.069,2.675,1.605,5.383,1.605,8.123c0,2.943-0.502,5.768-1.505,8.476
		s-2.407,5.1-4.213,7.171c-1.805,2.073-3.961,3.746-6.469,5.015c-2.508,1.271-5.3,1.906-8.375,1.906h-23.067v26.277H227.998z
		 M235.019,692.377h22.767c2.072,0,3.962-0.451,5.667-1.354c1.705-0.903,3.159-2.106,4.363-3.611
		c1.203-1.504,2.139-3.242,2.808-5.215c0.668-1.972,1.003-4.027,1.003-6.169c0-2.206-0.385-4.295-1.153-6.268
		c-0.77-1.972-1.805-3.694-3.109-5.166c-1.304-1.47-2.843-2.623-4.613-3.46c-1.772-0.835-3.628-1.254-5.566-1.254h-22.165V692.377z"
		/>
	<path fill="#EAEAEA" d="M332.206,653.663h5.918l29.587,71.21h-7.422l-9.228-22.266h-31.994l-9.127,22.266h-7.522L332.206,653.663z
		 M349.457,697.091l-14.343-35.204l-14.543,35.204H349.457z"/>
	<path fill="#EAEAEA" d="M384.962,666.701v58.172h-7.021v-71.21h5.416l47.14,59.274v-59.175h7.021v71.11h-6.118L384.962,666.701z"/>
	<path fill="#EAEAEA" d="M477.434,653.663h5.917l29.588,71.21h-7.422l-9.228-22.266h-31.995l-9.127,22.266h-7.521L477.434,653.663z
		 M494.685,697.091l-14.343-35.204l-14.543,35.204H494.685z"/>
	<path fill="#EAEAEA" d="M523.168,724.873v-71.21h7.021v64.991h41.121v6.219H523.168z"/>
	<path fill="#EAEAEA" d="M569.906,653.663l23.269,38.313l23.47-38.313h7.622l-27.581,44.731v26.479h-7.021v-26.679l-27.481-44.531
		H569.906z"/>
	<path fill="#EAEAEA" d="M685.346,659.881h-25.375v64.992h-7.021v-64.992h-25.375v-6.218h57.771V659.881z"/>
	<path fill="#EAEAEA" d="M695.976,724.873v-71.21h7.021v71.21H695.976z"/>
	<path fill="#EAEAEA" d="M716.134,688.766c0-4.278,0.753-8.541,2.257-12.788c1.505-4.245,3.693-8.039,6.569-11.384
		c2.874-3.343,6.419-6.067,10.632-8.174c4.212-2.106,8.992-3.159,14.342-3.159c6.352,0,11.785,1.438,16.299,4.313
		c4.513,2.876,7.839,6.619,9.979,11.233l-5.517,3.41c-1.138-2.34-2.524-4.313-4.162-5.918c-1.64-1.604-3.395-2.908-5.266-3.911
		c-1.873-1.003-3.812-1.721-5.817-2.156c-2.006-0.435-3.979-0.652-5.918-0.652c-4.279,0-8.058,0.87-11.333,2.607
		c-3.276,1.74-6.035,4.013-8.274,6.82c-2.241,2.809-3.929,5.968-5.065,9.479c-1.138,3.51-1.704,7.07-1.704,10.682
		c0,3.945,0.685,7.723,2.056,11.333c1.369,3.61,3.242,6.805,5.616,9.578c2.373,2.775,5.182,4.982,8.425,6.62
		c3.243,1.639,6.771,2.457,10.582,2.457c2.006,0,4.062-0.251,6.168-0.752c2.106-0.502,4.145-1.305,6.118-2.407
		c1.972-1.104,3.794-2.474,5.466-4.112c1.671-1.638,3.075-3.626,4.213-5.968l5.816,3.009c-1.138,2.675-2.742,5.032-4.813,7.071
		c-2.073,2.04-4.381,3.761-6.921,5.165c-2.542,1.404-5.232,2.475-8.073,3.209c-2.843,0.735-5.635,1.104-8.375,1.104
		c-4.882,0-9.362-1.068-13.439-3.209c-4.08-2.14-7.59-4.931-10.531-8.375c-2.943-3.443-5.233-7.354-6.87-11.734
		C716.952,697.777,716.134,693.314,716.134,688.766z"/>
	<path fill="#EAEAEA" d="M831.272,667.002c-2.006-2.272-4.681-4.112-8.023-5.516c-3.345-1.404-7.155-2.106-11.434-2.106
		c-6.286,0-10.866,1.188-13.741,3.561c-2.875,2.374-4.313,5.601-4.313,9.679c0,2.141,0.384,3.896,1.153,5.265
		c0.769,1.372,1.956,2.558,3.561,3.561s3.661,1.873,6.168,2.608c2.508,0.736,5.467,1.472,8.877,2.206
		c3.811,0.803,7.236,1.705,10.28,2.708c3.042,1.003,5.632,2.257,7.772,3.762c2.14,1.504,3.777,3.326,4.915,5.466
		c1.136,2.141,1.705,4.814,1.705,8.023c0,3.277-0.637,6.118-1.906,8.525c-1.271,2.407-3.043,4.413-5.315,6.018
		c-2.273,1.604-4.981,2.793-8.124,3.561c-3.144,0.768-6.587,1.153-10.33,1.153c-11.033,0-20.561-3.442-28.585-10.33l3.511-5.717
		c1.27,1.338,2.791,2.607,4.563,3.811c1.771,1.204,3.744,2.257,5.917,3.16c2.173,0.902,4.496,1.604,6.971,2.105
		c2.474,0.502,5.081,0.753,7.823,0.753c5.683,0,10.112-1.019,13.289-3.06c3.176-2.039,4.765-5.131,4.765-9.277
		c0-2.206-0.451-4.062-1.354-5.566c-0.902-1.504-2.257-2.809-4.062-3.911c-1.806-1.104-4.047-2.057-6.72-2.858
		c-2.676-0.803-5.784-1.605-9.328-2.407c-3.745-0.868-7.021-1.771-9.829-2.708c-2.808-0.936-5.183-2.106-7.121-3.511
		c-1.939-1.404-3.395-3.092-4.362-5.064c-0.971-1.972-1.454-4.396-1.454-7.271c0-3.275,0.617-6.201,1.855-8.776
		c1.236-2.573,2.991-4.714,5.265-6.419c2.272-1.705,4.948-3.009,8.024-3.911c3.074-0.903,6.484-1.354,10.229-1.354
		c4.747,0,8.977,0.72,12.688,2.156c3.711,1.438,7.071,3.461,10.08,6.068L831.272,667.002z"/>
</g>
<circle display="none" fill="#353E46" cx="1446.161" cy="370.15" r="341.803"/>
<g>
	<polygon fill="#2E9F54" points="513.3,303.174 374.368,92.541 469.304,510.971 832.462,0 	"/>
	<polygon fill="#8EC74A" points="325.232,319.24 444.401,529.022 349.168,105.317 10.116,607.714 	"/>
</g>
</svg>
