<?xml version="1.0" encoding="utf-8"?>
<!-- Generator: Adobe Illustrator 17.0.0, SVG Export Plug-In . SVG Version: 6.00 Build 0)  -->
<!DOCTYPE svg PUBLIC "-//W3C//DTD SVG 1.1//EN" "http://www.w3.org/Graphics/SVG/1.1/DTD/svg11.dtd">
<svg version="1.1" id="Layer_1" xmlns="http://www.w3.org/2000/svg" xmlns:xlink="http://www.w3.org/1999/xlink" x="0px" y="0px"
	 width="1131.967px" height="912.045px" viewBox="0 0 1131.967 912.045" enable-background="new 0 0 1131.967 912.045"
	 xml:space="preserve">
<g fill="#3D4351">
	<path fill="none" d="M222.862,498.3c-57.834-0.325-114.174,45.41-114.446,113.598c-0.27,67.842,55.659,115.107,113.702,114.08
		c59.393,1.087,113.194-47.297,114.024-112.161C336.99,547.584,282.823,498.637,222.862,498.3z M221.377,645.796
		c-4.365,0.583-8.845,0.314-13.28,0.365c-1.566,0.018-3.133,0.003-4.699,0.003c0-0.052,0-0.104,0-0.157
		c-5.22,0-10.44,0.023-15.66-0.004c-18.569-0.095-30.494-26.016-19.278-38.839c3.954-4.52,6.495-9.77,8.456-15.59
		c2.64-7.833,8.706-13.039,16.885-14.87c5.35-1.198,9.16-3.742,12.778-7.945c14.998-17.424,42.555-12.06,50.854,7.082
		c2.716,6.264,6.757,10.203,12.555,13.056c2.322,1.143,4.784,2.405,6.493,4.251c1.136,1.228,1.933,4.063,1.262,5.304
		c-0.663,1.228-3.747,2.335-5.097,1.801c-6.038-2.39-11.983-5.127-17.633-8.32c-1.701-0.961-2.365-3.784-3.467-5.775
		c-2.366-4.275-3.978-9.24-7.203-12.712c-7.968-8.579-21.13-8.222-29.353,0.146c-1.636,1.665-3.113,3.539-4.383,5.498
		c-2.448,3.776-5.528,5.678-10.278,5.872c-9.391,0.383-13.172,4.11-16.034,13.138c-1.134,3.578-3.115,7.126-5.523,10.009
		c-4.539,5.434-6.671,11.098-4.225,18.012c2.47,6.983,7.85,10.451,14.807,10.957c8.051,0.586,16.162,0.331,24.246,0.461
		c2.607,0.042,5.352-0.323,7.771,0.391c1.562,0.461,3.702,2.579,3.659,3.89C224.981,643.248,222.84,645.6,221.377,645.796z
		 M255.433,656.855c-15.733,0.33-28.854-12.67-28.878-28.611c-0.023-15.813,12.25-28.212,28.043-28.331
		c17.255-0.736,29.181,14.232,28.958,28.263C283.309,643.755,270.99,656.528,255.433,656.855z"/>
	<path fill="none" d="M1012.711,443.849c8.242-3.833,16.544-7.538,24.725-11.497c1.77-0.857,4.978-1.076,3.373-6.149
		c-21.32,10.162-42.123,20.066-62.889,30.045c-0.452,0.217-0.489,1.298-1.242,3.516c3.318-1.153,5.644-1.757,7.794-2.744
		C993.91,452.689,1003.292,448.229,1012.711,443.849z"/>
	<path fill="none" d="M1010.928,591.63c64.719,0.032,116.858-51.992,117.109-116.906c0.254-65.452-53.354-117.187-116.667-117.374
		c-65.662-0.193-117.949,54.138-117.492,117.343C894.345,539.562,946.119,591.598,1010.928,591.63z M1071.129,514.776
		c-3.246,0.166-6.064,0.423-8.882,0.433c-10.428,0.037-20.859,0.153-31.282-0.077c-7.04-0.155-8.561-1.896-8.868-9.005
		c-0.133-3.08-0.022-6.171-0.022-9.064c-4.758-2.621-9.297-4.328-11.308-10.196c9.22-5.048,18.85-9.201,28.731-13.642
		c4.089,6.259,2.665,11.881-1.258,16.768c-2.776,3.458-3.416,6.786-2.071,11.88c11.331,0,22.928,0,34.961,0
		C1071.129,506.496,1071.129,510.031,1071.129,514.776z M972.736,449.246c21.429-10.137,42.933-20.116,64.426-30.118
		c1.404-0.653,2.953-0.993,5.401-1.796c1.545,1.171,4.307,2.233,5.301,4.191c4.835,9.526,9.403,19.204,13.64,29.012
		c2.108,4.88,0.524,7.604-5.25,10.339c-14.13,6.693-28.319,13.26-42.494,19.858c-7.323,3.409-14.611,6.9-22.015,10.122
		c-6.003,2.612-8.344,1.751-11.234-4.188c-4.22-8.675-8.316-17.416-12.197-26.247C965.728,454.535,966.663,452.119,972.736,449.246z
		 M955.194,466.598c3.284,0.933,7.046,0.185,11.674,0.185c2.488,5.294,5.298,11.273,7.581,16.131
		c-3.175,4.539-5.681,7.973-8.022,11.515c-2.013,3.045-4.674,4.676-9.444,4.755c-4.435-9.509-8.972-19.236-13.596-29.15
		C947.677,466.274,950.858,465.366,955.194,466.598z"/>
	<path fill="none" d="M910.267,824.684c49.363-0.128,94.1-39.96,94.429-94.804c-0.295-51.519-41.151-94.566-94.617-94.612
		c-54.268-0.047-94.674,43.836-94.751,94.408C815.245,783.934,859.755,824.814,910.267,824.684z M879.554,753.677
		c1.029-0.101,2.08,0.033,3.121,0.036c5.745,0.02,9.293-2.958,9.567-8.664c0.212-4.411-0.111-8.86-0.409-13.278
		c-0.356-5.262,0.929-9.757,5.057-13.315c2.579-2.222,4.633-4.636,4.783-8.515c0.143-3.701,3.068-5.27,6.549-5.342
		c3.194-0.066,6.156,2.677,6.331,5.801c0.203,3.627-1.801,5.873-5.09,6.977c-1.704,0.572-3.918,0.326-5.193,1.341
		c-3.852,3.063-7.735,6.22-6.987,12.176c0.417,3.322,0.075,6.74,0.075,11.253c2.068-1.385,3.386-1.997,4.356-2.959
		c11.468-11.395,22.849-22.877,34.342-34.246c2.33-2.305,4.29-4.472,1.584-8.256c4.699-1.099,8.6-2.01,13.923-3.255
		c-1.339,5.155-2.346,9.03-3.089,11.889c-3.2,1.021-5.995,1.094-7.495,2.525c-9.226,8.801-18.16,17.908-26.891,27.706
		c7.18,0.488,14.61,3.922,20.489-3.298c0.798-0.98,2.199-2.266,2.012-3.125c-1.422-6.538,4.443-7.912,7.913-12.255
		c2.779,3.277,5.229,6.165,8.08,9.526c-2.812,2.927-4.109,8.207-10.652,7.387c-1.468-0.184-3.505,1.94-4.843,3.402
		c-3.25,3.55-7.241,5.557-11.859,4.599c-15.479-3.211-25.952,3.885-34.595,17.334c0.162,1.339,0.65,3.387,0.612,5.425
		c-0.11,5.894-4.699,10.109-10.685,10.04c-5.676-0.065-9.913-3.998-10.352-9.608C869.74,758.985,873.625,754.26,879.554,753.677z"/>
	<path fill="none" d="M254.896,606.89c-11.716,0.061-21.135,9.899-20.869,21.796c0.262,11.702,9.388,20.511,21.175,20.438
		c10.737,0.574,20.663-8.56,21.01-20.73C276.543,616.802,266.47,606.829,254.896,606.89z M266.023,634.059
		c1.781,1.938,4.162,4.068,1.356,6.577c-2.569,2.297-4.777,0.225-6.722-1.648c-1.68-1.617-3.393-3.199-5.567-5.243
		c-2.02,1.819-3.94,3.47-5.77,5.215c-1.96,1.869-4.171,3.986-6.713,1.683c-2.679-2.428-0.544-4.675,1.319-6.637
		c1.767-1.862,3.501-3.754,5.469-5.868c-2.277-2.404-4.225-4.462-6.172-6.52c-1.796-1.897-2.817-3.988-0.545-6.111
		c1.989-1.859,3.846-0.734,5.482,0.803c2.075,1.95,4.128,3.925,6.689,6.365c2.616-2.392,4.886-4.872,7.58-6.741
		c1.164-0.808,3.603-1.023,4.759-0.331c2.223,1.331,1.719,3.553,0.111,5.35c-2.067,2.309-4.211,4.549-6.697,7.221
		C262.564,630.303,264.296,632.179,266.023,634.059z"/>
	<path fill="none" d="M397.678,245.776c-46.929-0.131-86.687,38.25-86.822,86.446c-0.135,48.147,39.629,87.47,86.384,86.622
		c47.528,1.051,86.732-39.022,86.846-86.181C484.2,285.808,445.682,245.911,397.678,245.776z M436.98,355.12
		c-0.04,6.103-0.747,6.855-6.758,6.938c-10.968,0.151-21.939,0.043-32.908,0.046c-10.708,0.003-21.418,0.091-32.125-0.03
		c-6.472-0.073-7.226-0.817-7.268-7.249c-0.098-14.887-0.094-29.775-0.001-44.662c0.04-6.466,0.815-7.332,7.18-7.362
		c21.678-0.104,43.356-0.109,65.034,0.007c6.054,0.032,6.8,0.858,6.842,6.868C437.079,324.822,437.079,339.972,436.98,355.12z"/>
	<path fill="none" d="M762.091,487.658c49.232,1.189,94.096-40.776,93.719-94.158c-0.369-52.077-42.25-94.006-94.324-93.843
		c-50.135,0.157-93.945,39.983-93.772,94.44C667.894,451.077,715.631,489.211,762.091,487.658z M720.199,381.874
		c3.362-2.937,7.893-2.728,11.238,0.61c1.865,1.861,2.276,5.788,7.004,4.02c2.736-6.424,5.945-13.042,14.189-15.577
		c8.088-2.488,14.159,1.088,20.561,5.537c2.613-1.7,5.205-3.385,7.606-4.947c1.242-10.641,5.203-15.191,12.006-14.101
		c5.714,0.916,9.418,6.55,8.025,12.209c-1.705,6.929-7.358,8.826-17.129,5.286c-2.408,1.598-5.168,3.43-7.742,5.138
		c0.489,4.827,0.931,9.187,1.458,14.392c4.731,1.979,9.875,4.375,15.211,6.218c1.654,0.571,3.886-0.145,5.748-0.657
		c2.21-0.607,4.25-2.124,6.462-2.374c5.26-0.595,9.9,2.978,11.04,7.955c1.194,5.213-1.884,10.473-7.223,12.344
		c-4.675,1.639-11.432-0.466-12.292-5.321c-1.235-6.974-6.22-8.235-11.191-10.245c-3.125-1.263-6.264-2.491-8.622-3.427
		c-4.907,3.084-8.924,6.966-13.633,8.189c-4.723,1.227-10.134-0.196-16.273-0.511c-0.755,0.845-2.286,2.56-3.994,4.473
		c0.652,1.745,1.34,3.386,1.883,5.074c1.944,6.038,0.16,11.664-4.776,15.241c-5.069,3.673-11.003,3.585-15.949-0.239
		c-4.547-3.515-6.412-9.332-4.716-14.704c1.764-5.586,6.86-9.149,13.184-9.037c2.059,0.037,4.11,0.463,6.988,0.81
		c1.554-1.944,2.996-3.748,4.416-5.524c-1.76-3.775-3.397-7.285-5.517-11.832c-1.741,0.472-3.821,0.84-5.73,1.625
		c-1.147,0.472-1.918,1.806-3.047,2.382c-3.935,2.008-8.801,0.56-10.903-3.094C716.537,388.411,717.219,384.478,720.199,381.874z"/>
	<path fill="none" d="M121.385,220.312C51.761,220.153,4.111,277.238,3.96,336.988c-0.161,63.857,51.76,117.646,117.242,117.653
		c62.837,0.007,116.855-50.79,117.006-117.09C238.327,275.268,189.096,220.467,121.385,220.312z M180.255,377.849
		c-0.121,5.069-0.945,5.952-5.993,6.119c-6.519,0.215-13.051,0.089-19.576,0.008c-2.909-0.036-5.204-1.157-5.227-4.513
		c-0.063-9.071-0.022-18.143-0.022-27.918c4.623-0.385,8.399-0.7,13.039-1.086c0.169-3.045,0.334-6.004,0.489-8.799
		c-5.813-2.135-26.861-2.661-38.942-1.058c0,3.083,0,6.265,0,9.969c3.917,0.249,7.714,0.49,12.52,0.795
		c0,9.849,0.067,19.172-0.04,28.493c-0.034,2.909-2.159,4.055-4.768,4.086c-7.047,0.084-14.095,0.102-21.142,0.01
		c-2.541-0.033-4.774-1.029-4.803-4.019c-0.09-9.31-0.033-18.621-0.033-28.43c4.532-0.359,8.085-0.641,12.363-0.98
		c0-3.224,0-6.38,0-10.104c-12.77,0-25.383,0-38.465,0c0,3.475,0,6.476,0,10.038c3.966,0.292,7.77,0.572,11.93,0.878
		c0.468,1.586,1.227,3.008,1.255,4.445c0.139,7.306,0.241,14.62,0.054,21.924c-0.13,5.069-1.126,6.113-5.919,6.265
		c-6.519,0.207-13.051,0.074-19.576,0.022c-3.29-0.026-5.491-1.269-5.467-5.054c0.057-8.834,0.018-17.669,0.018-27.311
		c4.328-0.428,8.068-0.798,12.207-1.208c0.326-4.819,0.634-9.389,1.002-14.825c14.644,0,28.866,0,43.392,0c0-3.741,0-6.563,0-10.443
		c-10.596,0-21.13,0-32.095,0c-0.401-2.961-0.882-4.945-0.903-6.933c-0.087-8.614-0.084-17.229-0.028-25.844
		c0.051-7.776,0.527-8.22,8.616-8.349c4.437-0.071,8.876-0.016,13.314-0.016c13.053,0,26.106-0.057,39.157,0.044
		c3.03,0.023,6.055,0.588,9.457,0.943c0,13.372,0,26.031,0,39.126c-10.843,2.292-21.588-0.243-32.333,1.59c0,3.075,0,5.876,0,9.677
		c14.259,0,28.463,0,43.177,0c0.316,5.513,0.578,10.086,0.861,15.03c3.913,0.344,7.463,0.656,11.433,1.005
		c0.381,1.849,1.01,3.559,1.038,5.278C180.363,363.752,180.424,370.804,180.255,377.849z"/>
	<path fill="none" d="M584.082,189.543c16.223-10.084,28.947-23.273,35.221-41.511c2.847-8.275,4.55-17.156,5.29-25.887
		c0.892-10.54,0.211-21.213,0.211-32.644c-16.914,2.583-31.737-0.805-44.809-11.157C566.87,88.59,552.313,92.12,535.321,89.386
		c0,12.63-0.741,24.097,0.146,35.437c2.208,28.225,16.145,49.519,40.037,64.502C578.476,191.189,580.913,191.513,584.082,189.543z
		 M543.155,98.372c12.83-0.571,25.441-3.205,36.167-10.567c7.34,3.222,14.179,6.225,21.969,9.645
		c-4.968,6.392-11.07,11.491-16.537,17.137c-5.795,5.985-11.753,11.813-17.65,17.699c-5.627,5.617-11.268,11.22-17.009,16.934
		C542.424,138.368,540.679,114.009,543.155,98.372z M560.27,165.883c-1.653-1.882-3.086-3.514-4.06-4.623
		c20.485-20.311,40.549-40.204,60.756-60.238c1.547,5.083-0.152,9.062-4.104,12.938c-16.356,16.043-32.456,32.345-48.668,48.534
		C563.12,163.567,561.894,164.489,560.27,165.883z M573.194,178.419c-1.43-1.058-2.729-2.292-3.342-2.811
		c15.576-15.892,30.984-31.613,47.051-48.007c-0.47,2.701-0.747,4.853-1.227,6.959c-4.168,18.29-13.796,33.006-28.97,44.064
		C580.078,183.454,580.002,183.458,573.194,178.419z"/>
	<path fill="none" d="M707.945,131.893C708.026,65.488,655.127,3.815,580.102,3.791c-74.038-0.024-128.228,60.351-127.773,128.061
		c-0.381,65.709,51.702,127.436,127.346,127.694C656.249,259.808,707.865,196.955,707.945,131.893z M526.134,118.185
		c-0.201-4.428-0.027-8.874-0.025-13.311c0.002-6.004-0.136-12.011,0.04-18.01c0.192-6.545,1.911-7.974,8.268-6.558
		c9.927,2.212,19.717,2.447,29.061-1.978c4.196-1.987,8.127-4.66,11.867-7.441c3.224-2.398,5.949-2.706,9.082-0.041
		c12.249,10.417,26.213,13.09,41.726,9.396c5.499-1.309,7.615,0.23,7.637,5.666c0.074,17.717,1.481,35.558-2.635,53.028
		c-6.28,26.654-22.005,46.207-45.621,59.753c-4.18,2.397-7.557,1.939-11.576-0.377C543.036,180.495,527.732,153.437,526.134,118.185
		z"/>
	<path fill="none" d="M366.559,354.879c8.568,1.642,55.809,1.398,61.775-0.258c0-11.81,0-23.657,0-35.958
		c-20.668,0-40.852,0-61.775,0C366.559,331.31,366.559,343.15,366.559,354.879z M410.843,330.029
		c0.689,0.103,1.011,0.056,1.195,0.194c2.966,2.204,8.281,2.785,7.521,7.771c-0.644,4.221-5.089,5.235-8.317,6.888
		c-0.515-0.498-0.898-0.752-0.861-0.85c0.892-2.414,2.813-4.965,2.469-7.167C412.533,334.832,408.677,333.609,410.843,330.029z
		 M382.306,341.65c6.86-4.015,10.756-12.442,18.37-15.914c2.744,2.735,1.452,4.367-0.089,5.919
		c-4.928,4.962-9.913,9.867-14.8,14.868c-2.482,2.54-4.893,2.74-7.302,0.091c-1.819-2-3.483-4.142-5.509-6.572
		C377.913,336.83,379.226,341.076,382.306,341.65z"/>
	<path d="M477.326,910.201c-0.246-55.635-0.078-111.272-0.078-166.908c0-47.8-0.072-95.6,0.107-143.399
		c0.019-4.953-0.911-8.622-5.577-10.851c-1.156-0.552-2.096-1.546-3.155-2.31C389.241,529.43,309.856,472.13,230.477,414.822
		c-3.357-2.424-6.655-4.931-9.948-7.374c41.896-63.461,18.955-138.403-34.652-172.326c-53.232-33.686-123.41-20.867-161.763,29.84
		c-38.118,50.397-30.208,121.861,17.802,164.13c46.121,40.606,127.424,42.98,176.515-18.578c2.898,2.059,5.848,4.126,8.768,6.234
		c79.803,57.622,159.56,115.307,239.498,172.741c5.304,3.811,7.226,7.706,7.213,14.116c-0.192,90.375,0.012,180.752-0.202,271.127
		c-0.029,12.438-0.173,24.876-0.349,37.313h3.987C477.344,911.43,477.328,910.815,477.326,910.201z M121.202,454.641
		C55.72,454.634,3.799,400.845,3.96,336.988c0.151-59.749,47.801-116.834,117.425-116.675
		c67.711,0.155,116.943,54.955,116.824,117.238C238.057,403.851,184.038,454.648,121.202,454.641z"/>
	<path d="M451.56,911.345c-0.235-48.06-0.163-96.122,0.041-144.182c0.026-6.028-1.603-9.903-6.718-13.57
		c-28.643-20.536-56.976-41.503-85.401-62.343c-3.297-2.417-6.467-4.359-6.199-9.773c0.269-5.441-4.901-8.453-10.541-7.571
		c-4.599,0.719-7.844,4.971-7.286,9.547c0.636,5.226,5.303,9.143,10.698,7.524c4.493-1.348,7.26,0.056,10.521,2.457
		c28.595,21.053,57.194,42.102,85.972,62.902c4.108,2.969,5.474,6.103,5.447,11.043c-0.196,36.828,0.096,73.66-0.166,110.487
		c-0.081,11.393-0.224,22.786-0.387,34.179h4.026C451.567,911.811,451.561,911.578,451.56,911.345z"/>
	<path d="M556.255,908.969c0-153.586,0-307.173,0-460.76c0-2.351-0.155-4.713,0.028-7.05c0.251-3.218-1.027-5.347-3.673-7.165
		c-5.162-3.547-10.189-7.299-15.157-11.117c-4.359-3.35-9.608-5.588-9.234-13.045c0.236-4.703-5.919-7.699-10.64-6.588
		c-4.462,1.05-7.631,5.567-6.988,9.961c0.697,4.764,5.466,8.947,10.15,7.37c5.164-1.738,8.317,0.332,11.88,3.069
		c4.761,3.658,9.482,7.422,14.558,10.599c4.537,2.84,5.765,6.451,5.743,11.651c-0.191,44.926-0.11,89.853-0.11,134.78
		c0,107.876,0.018,215.753-0.056,323.629c-0.002,2.574-0.21,5.147-0.474,7.741h3.973
		C556.255,911.011,556.255,909.987,556.255,908.969z"/>
	<path d="M735.06,880.912c0.046-1.87,1.927-4.143,3.578-5.447c6.348-5.015,12.944-9.716,19.454-14.526
		c4.309-3.185,8.068-6.87,14.569-5.145c4.129,1.096,7.451-2.615,7.875-6.795c0.42-4.139-2.227-7.846-6.215-8.701
		c-4.433-0.951-8.726,1.393-9.811,5.651c-0.503,1.977-0.384,4.112-0.554,6.255c-9.293,6.884-18.409,13.869-27.795,20.472
		c-3.616,2.544-4.951,5.403-4.824,9.778c0.285,9.857,0.135,19.726,0.076,29.591h3.469
		C734.854,901.397,734.809,891.14,735.06,880.912z"/>
	<path d="M530.707,436.963c-21.536-15.444-42.622-30.567-63.721-45.697c35.973-46.956,21.664-102.235-13.054-129.691
		c-36.973-29.24-89.655-25.567-122.251,8.658c-32.146,33.753-33.192,87.235-2.318,121.979c16.182,18.21,36.594,28.534,60.75,30.465
		c29.02,2.319,53.653-8,74.122-28.621c2.106,1.386,3.876,2.469,5.562,3.671c16.795,11.974,33.45,24.151,50.44,35.841
		c5.052,3.477,6.994,7.202,6.979,13.417c-0.215,84.89-0.144,169.781-0.144,254.671c0,67.651,0.032,135.302-0.065,202.954
		c-0.003,2.478-0.226,4.955-0.509,7.434h4.209C530.707,753.371,530.707,595.132,530.707,436.963z M397.24,418.845
		c-46.755,0.848-86.518-38.475-86.384-86.622c0.135-48.196,39.893-86.577,86.822-86.446c48.004,0.134,86.522,40.031,86.408,86.887
		C483.971,379.823,444.768,419.895,397.24,418.845z"/>
	<path d="M709.976,911.902c-0.042-8.62,0.407-17.267-0.16-25.849c-0.397-6.009,1.916-9.438,6.625-12.846
		c36.381-26.328,72.568-52.925,108.826-79.424c1.841-1.346,3.786-2.55,5.642-3.793c41.426,50.049,105.255,46.791,142.089,15.896
		c38.868-32.599,47.052-88.828,18.808-130.826c-28.273-42.042-83.324-55.91-128.137-32.077
		c-22.121,11.765-37.722,29.547-46.212,53.121c-11.472,31.856-6.748,62.017,11.436,90.572c-4.467,3.314-8.416,6.279-12.4,9.194
		c-34.766,25.439-69.479,50.952-104.385,76.197c-4.322,3.126-6.023,6.38-5.799,11.62c0.391,9.125,0.147,18.28,0.075,27.421
		c-0.002,0.312-0.021,0.624-0.03,0.936h3.624C709.978,911.997,709.976,911.949,709.976,911.902z M815.328,729.676
		c0.078-50.572,40.483-94.455,94.751-94.408c53.466,0.046,94.322,43.093,94.617,94.612c-0.329,54.844-45.067,94.676-94.429,94.804
		C859.755,824.814,815.245,783.934,815.328,729.676z"/>
	<path d="M425.787,911.556c-0.344-48.32-0.216-96.644,0.045-144.965c0.032-5.941-1.83-9.389-6.655-12.746
		c-31.931-22.214-63.64-44.746-95.404-67.198c-2.061-1.457-3.982-3.11-5.929-4.641c39.765-57.586,23.583-130.762-28.777-166.86
		c-50.136-34.565-119.428-24.786-157.969,22.554c-39.241,48.199-34.722,117.872,10.522,160.384
		c22.279,20.934,48.977,31.758,79.404,31.954c38.336,0.248,69.616-15.511,94.061-44.717c1.084,0.557,1.834,0.837,2.466,1.283
		c33.502,23.615,66.939,47.324,100.562,70.766c3.945,2.75,4.27,5.969,4.264,9.996c-0.055,35.262,0.169,70.526-0.087,105.786
		c-0.094,12.965-0.256,25.929-0.438,38.893h3.941C425.792,911.882,425.788,911.719,425.787,911.556z M222.119,725.978
		c-58.043,1.027-113.972-46.238-113.702-114.08c0.271-68.189,56.612-113.923,114.446-113.598
		c59.961,0.337,114.128,49.284,113.281,115.517C335.313,678.682,281.512,727.066,222.119,725.978z"/>
	<path d="M659.783,718.52c-0.014-5.276,1.589-8.516,5.913-11.594c26.376-18.772,52.535-37.851,78.772-56.82
		c13.951-10.086,27.911-20.159,41.638-30.073c9.572,3.412,14.516,2.677,17.99-2.439c2.734-4.027,2.469-9.415-0.645-13.111
		c-3.078-3.654-8.385-4.935-12.801-3.09c-5.596,2.338-7.321,6.379-6.365,15.512c-2.691,1.991-4.979,3.717-7.301,5.395
		c-37.877,27.372-75.68,54.849-113.73,81.979c-5.298,3.778-7.108,7.712-7.082,14.137c0.253,61.904,0.161,123.809,0.123,185.714
		c-0.002,2.638-0.23,5.284-0.509,7.916h4.11C659.896,847.536,659.956,783.028,659.783,718.52z"/>
	<path d="M632.358,909.991c0-106.57,0-213.141,0-319.711c0-31.083,0.091-62.167-0.098-93.248c-0.028-4.648,1.335-7.648,5.163-10.365
		c13.626-9.669,27.005-19.686,40.502-29.539c1.821-1.329,3.777-2.475,5.618-3.671c38.359,46.938,99.651,48.408,138.785,17.413
		c40.231-31.864,49.388-88.172,21.456-130.865c-27.54-42.095-83.346-56.442-127.892-32.737
		c-22.403,11.922-38.124,29.959-46.434,53.879c-10.903,31.381-6.134,61.116,11.728,89.011c-2.71,2.068-4.954,3.835-7.254,5.525
		c-13.465,9.894-26.87,19.872-40.471,29.577c-3.316,2.366-5.194,4.868-4.742,9.016c0.225,2.065,0.035,4.175,0.035,6.265
		c0,135.564,0,271.127,0,406.691c0,1.601,0,3.207,0,4.814h3.602C632.358,911.357,632.358,910.673,632.358,909.991z M667.713,394.097
		c-0.173-54.457,43.637-94.283,93.772-94.44c52.074-0.163,93.955,41.766,94.324,93.843c0.378,53.383-44.486,95.348-93.719,94.158
		C715.631,489.211,667.894,451.077,667.713,394.097z"/>
	<path d="M685.801,910.351c0-63.472,0.107-126.944-0.16-190.415c-0.027-6.496,1.979-10.296,7.217-14.036
		c65.23-46.58,130.286-93.404,195.389-140.162c8.466-6.081,16.947-12.142,25.401-18.198
		c47.013,59.541,126.221,60.091,173.978,20.771c47.51-39.116,58.496-107.837,24.893-159.721
		c-33.457-51.659-100.892-69.999-155.918-42.218c-27.745,14.008-47.587,35.634-58.558,64.647
		c-15.087,39.896-9.381,77.814,13.621,113.439c-3.071,2.247-5.576,4.108-8.109,5.929c-71.443,51.349-142.844,102.758-214.43,153.907
		c-5.105,3.648-6.801,7.409-6.781,13.465c0.197,62.165,0.089,124.332,0.176,186.498c0.004,2.677-0.171,5.27-0.656,7.789h3.939
		C685.801,911.478,685.801,910.913,685.801,910.351z M893.877,474.694c-0.456-63.206,51.831-117.536,117.492-117.343
		c63.313,0.186,116.921,51.922,116.667,117.374c-0.251,64.914-52.39,116.938-117.109,116.906
		C946.119,591.598,894.345,539.562,893.877,474.694z"/>
	<path d="M503.023,908.496c-0.172-102.652-0.116-205.305,0.046-307.956c0.009-5.574-1.762-9.002-6.241-12.24
		c-48.451-35.029-96.764-70.249-145.101-105.435c-1.446-1.053-2.746-2.305-3.677-3.093c0-2.941,0.361-5.316-0.069-7.538
		c-1.219-6.304-7.232-9.78-13.738-8.227c-5.555,1.326-9.121,6.962-7.924,12.522c1.353,6.284,7.377,10.069,13.589,8.423
		c1.963-0.52,3.837-1.374,5.719-2.064c1.711,1.202,3.216,2.226,4.687,3.296c47.294,34.405,94.502,68.929,141.987,103.068
		c5.592,4.021,7.396,8.122,7.329,14.772c-1.034,102.669,1.304,205.355-0.927,308.021h4.341
		C503.039,910.862,503.025,909.679,503.023,908.496z"/>
	<path d="M606.335,909.069c0-136.086,0-272.172,0-408.258c0-1.045,0.124-2.107-0.02-3.131c-0.688-4.901,0.926-8.333,5.332-11.075
		c5.524-3.437,10.554-7.668,15.812-11.535c3.134-2.305,5.821-4.394,10.526-2.428c4.491,1.877,9.517-2.13,10.434-6.869
		c1.008-5.206-2.485-10.071-7.732-10.771c-4.707-0.628-9.231,2.872-9.935,7.875c-0.249,1.768-0.04,3.601-0.04,5.44
		c-7.085,5.229-13.838,10.609-21.004,15.366c-5.033,3.341-6.949,7.185-6.938,13.423c0.209,119.108,0.154,238.216,0.154,357.324
		c0,19.068,0.016,38.135-0.019,57.203c0,0.138-0.007,0.275-0.009,0.413h3.438C606.335,911.045,606.335,910.054,606.335,909.069z"/>
	<path d="M581.837,271.88c0-2.338,0.249-4.677,0.417-7.013c0.015-0.209,0.276-0.412,0.446-0.595
		c0.177-0.191,0.384-0.354,0.577-0.529c77.363-3.585,129.32-65.527,128.562-133.296C711.078,62.277,659.572,6.595,592.488,0.572
		c-74.341-6.674-132.656,45.918-142.562,110.611c-5.058,33.035,1.15,64.079,19.616,92.063
		c25.508,38.657,62.355,57.901,108.668,60.622c0,3.95,0,7.309,0,10.668c0,209.745,0.002,419.49-0.014,629.235
		c0,2.757-0.059,5.522-0.236,8.274h3.859C581.819,698.282,581.818,485.079,581.837,271.88z M452.329,131.852
		C451.874,64.142,506.064,3.768,580.102,3.791c75.025,0.024,127.924,61.697,127.843,128.102
		c-0.08,65.062-51.695,127.915-128.27,127.654C504.03,259.288,451.948,197.561,452.329,131.852z"/>
	<path d="M585.533,198.689c23.616-13.546,39.341-33.099,45.621-59.753c4.116-17.47,2.71-35.311,2.635-53.028
		c-0.023-5.436-2.138-6.976-7.637-5.666c-15.513,3.694-29.477,1.021-41.726-9.396c-3.133-2.665-5.858-2.357-9.082,0.041
		c-3.74,2.781-7.671,5.454-11.867,7.441c-9.344,4.425-19.134,4.19-29.061,1.978c-6.357-1.416-8.076,0.013-8.268,6.558
		c-0.176,5.999-0.037,12.006-0.04,18.01c-0.002,4.437-0.176,8.883,0.025,13.311c1.599,35.252,16.902,62.311,47.824,80.128
		C577.976,200.628,581.354,201.086,585.533,198.689z M535.467,124.823c-0.887-11.34-0.146-22.808-0.146-35.437
		c16.993,2.734,31.55-0.796,44.675-11.043c13.072,10.352,27.895,13.74,44.809,11.157c0,11.431,0.681,22.104-0.211,32.644
		c-0.739,8.732-2.443,17.613-5.29,25.887c-6.275,18.239-18.998,31.428-35.221,41.511c-3.169,1.97-5.606,1.646-8.578-0.218
		C551.612,174.343,537.675,153.049,535.467,124.823z"/>
	<path d="M980.511,486.666c2.89,5.94,5.231,6.8,11.234,4.188c7.405-3.222,14.693-6.713,22.015-10.122
		c14.175-6.598,28.364-13.164,42.494-19.858c5.774-2.735,7.358-5.459,5.25-10.339c-4.237-9.808-8.805-19.485-13.64-29.012
		c-0.994-1.959-3.756-3.021-5.301-4.191c-2.448,0.803-3.998,1.143-5.401,1.796c-21.493,10.002-42.997,19.981-64.426,30.118
		c-6.073,2.873-7.008,5.288-4.422,11.173C972.195,469.25,976.291,477.992,980.511,486.666z M977.918,456.249
		c20.766-9.98,41.569-19.884,62.889-30.045c1.606,5.073-1.603,5.292-3.373,6.149c-8.18,3.959-16.483,7.664-24.725,11.497
		c-9.418,4.38-18.8,8.84-28.241,13.172c-2.15,0.987-4.476,1.591-7.794,2.744C977.43,457.547,977.466,456.466,977.918,456.249z"/>
	<path d="M1038.239,489.994c3.923-4.887,5.347-10.509,1.258-16.768c-9.881,4.441-19.512,8.594-28.731,13.642
		c2.011,5.868,6.55,7.575,11.308,10.196c0,2.893-0.111,5.984,0.022,9.064c0.307,7.109,1.828,8.85,8.868,9.005
		c10.423,0.23,20.855,0.114,31.282,0.077c2.819-0.01,5.636-0.267,8.882-0.433c0-4.745,0-8.28,0-12.902c-12.033,0-23.629,0-34.961,0
		C1034.823,496.78,1035.464,493.452,1038.239,489.994z"/>
	<path d="M966.426,494.429c2.342-3.542,4.847-6.975,8.022-11.515c-2.283-4.857-5.093-10.836-7.581-16.131
		c-4.627,0-8.389,0.748-11.674-0.185c-4.336-1.232-7.517-0.324-11.808,3.435c4.624,9.913,9.161,19.64,13.596,29.15
		C961.752,499.105,964.412,497.474,966.426,494.429z"/>
	<path d="M179.208,351.427c-3.97-0.349-7.52-0.661-11.433-1.005c-0.283-4.944-0.545-9.517-0.861-15.03c-14.714,0-28.917,0-43.177,0
		c0-3.802,0-6.602,0-9.677c10.745-1.832,21.49,0.702,32.333-1.59c0-13.095,0-25.754,0-39.126c-3.401-0.355-6.427-0.92-9.457-0.943
		c-13.052-0.102-26.105-0.044-39.157-0.044c-4.438,0-8.877-0.054-13.314,0.016c-8.09,0.129-8.565,0.573-8.616,8.349
		c-0.057,8.614-0.06,17.23,0.028,25.844c0.02,1.989,0.502,3.973,0.903,6.933c10.965,0,21.499,0,32.095,0c0,3.88,0,6.702,0,10.443
		c-14.527,0-28.748,0-43.392,0c-0.367,5.436-0.676,10.006-1.002,14.825c-4.138,0.41-7.879,0.78-12.207,1.208
		c0,9.642,0.039,18.477-0.018,27.311c-0.024,3.785,2.177,5.027,5.467,5.054c6.526,0.052,13.057,0.186,19.576-0.022
		c4.793-0.152,5.789-1.196,5.919-6.265c0.187-7.304,0.086-14.618-0.054-21.924c-0.027-1.437-0.787-2.859-1.255-4.445
		c-4.159-0.306-7.963-0.586-11.93-0.878c0-3.562,0-6.564,0-10.038c13.082,0,25.695,0,38.465,0c0,3.723,0,6.879,0,10.104
		c-4.279,0.339-7.831,0.62-12.363,0.98c0,9.809-0.057,19.12,0.033,28.43c0.029,2.99,2.262,3.986,4.803,4.019
		c7.046,0.093,14.095,0.074,21.142-0.01c2.609-0.031,4.734-1.177,4.768-4.086c0.107-9.321,0.04-18.644,0.04-28.493
		c-4.805-0.305-8.603-0.546-12.52-0.795c0-3.704,0-6.886,0-9.969c12.081-1.602,33.129-1.077,38.942,1.058
		c-0.155,2.795-0.32,5.754-0.489,8.799c-4.64,0.387-8.416,0.701-13.039,1.086c0,9.774-0.041,18.846,0.022,27.918
		c0.023,3.355,2.318,4.477,5.227,4.513c6.525,0.081,13.057,0.207,19.576-0.008c5.048-0.167,5.872-1.05,5.993-6.119
		c0.168-7.044,0.108-14.097-0.009-21.143C180.218,354.986,179.589,353.276,179.208,351.427z"/>
	<path d="M221.37,637.932c-2.419-0.714-5.164-0.349-7.771-0.391c-8.085-0.13-16.196,0.125-24.246-0.461
		c-6.957-0.506-12.337-3.975-14.807-10.957c-2.446-6.914-0.314-12.578,4.225-18.012c2.408-2.883,4.389-6.432,5.523-10.009
		c2.861-9.027,6.643-12.755,16.034-13.138c4.75-0.194,7.831-2.095,10.278-5.872c1.27-1.959,2.747-3.833,4.383-5.498
		c8.224-8.368,21.385-8.724,29.353-0.146c3.225,3.472,4.837,8.437,7.203,12.712c1.102,1.991,1.766,4.813,3.467,5.775
		c5.65,3.192,11.595,5.93,17.633,8.32c1.351,0.535,4.434-0.573,5.097-1.801c0.671-1.241-0.126-4.076-1.262-5.304
		c-1.708-1.846-4.17-3.108-6.493-4.251c-5.798-2.853-9.839-6.792-12.555-13.056c-8.299-19.142-35.855-24.506-50.854-7.082
		c-3.618,4.203-7.428,6.747-12.778,7.945c-8.179,1.831-14.245,7.037-16.885,14.87c-1.962,5.82-4.503,11.07-8.456,15.59
		c-11.216,12.823,0.709,38.744,19.278,38.839c5.22,0.027,10.44,0.004,15.66,0.004c0,0.052,0,0.104,0,0.157
		c1.566,0,3.133,0.015,4.699-0.003c4.435-0.052,8.915,0.218,13.28-0.365c1.463-0.195,3.605-2.548,3.652-3.974
		C225.072,640.51,222.932,638.393,221.37,637.932z"/>
	<path d="M254.599,599.912c-15.793,0.119-28.067,12.518-28.043,28.331c0.024,15.941,13.145,28.941,28.878,28.611
		c15.556-0.327,27.876-13.1,28.123-28.679C283.78,614.144,271.854,599.176,254.599,599.912z M255.202,649.124
		c-11.787,0.073-20.914-8.736-21.175-20.438c-0.266-11.897,9.153-21.734,20.869-21.796c11.574-0.061,21.647,9.912,21.316,21.504
		C275.865,640.564,265.939,649.698,255.202,649.124z"/>
	<path d="M880.561,774.584c5.985,0.069,10.575-4.146,10.685-10.04c0.038-2.038-0.45-4.086-0.612-5.425
		c8.643-13.449,19.116-20.544,34.595-17.334c4.618,0.958,8.609-1.049,11.859-4.599c1.338-1.462,3.375-3.585,4.843-3.402
		c6.543,0.82,7.84-4.46,10.652-7.387c-2.851-3.362-5.301-6.249-8.08-9.526c-3.47,4.343-9.335,5.717-7.913,12.255
		c0.187,0.86-1.214,2.145-2.012,3.125c-5.879,7.221-13.309,3.787-20.489,3.298c8.731-9.798,17.665-18.905,26.891-27.706
		c1.5-1.431,4.295-1.504,7.495-2.525c0.743-2.859,1.749-6.733,3.089-11.889c-5.323,1.245-9.224,2.157-13.923,3.255
		c2.707,3.784,0.747,5.951-1.584,8.256c-11.493,11.369-22.874,22.852-34.342,34.246c-0.969,0.963-2.288,1.574-4.356,2.959
		c0-4.513,0.342-7.931-0.075-11.253c-0.748-5.957,3.136-9.114,6.987-12.176c1.275-1.014,3.489-0.769,5.193-1.341
		c3.289-1.104,5.293-3.35,5.09-6.977c-0.175-3.124-3.137-5.867-6.331-5.801c-3.481,0.072-6.407,1.641-6.549,5.342
		c-0.15,3.879-2.205,6.293-4.783,8.515c-4.128,3.558-5.412,8.053-5.057,13.315c0.299,4.418,0.621,8.868,0.409,13.278
		c-0.274,5.706-3.822,8.684-9.567,8.664c-1.041-0.004-2.092-0.138-3.121-0.036c-5.929,0.583-9.814,5.308-9.345,11.299
		C870.648,770.586,874.886,774.519,880.561,774.584z"/>
	<path d="M729.384,394.883c1.129-0.576,1.9-1.911,3.047-2.382c1.909-0.785,3.99-1.154,5.73-1.625
		c2.12,4.547,3.757,8.058,5.517,11.832c-1.42,1.776-2.862,3.58-4.416,5.524c-2.878-0.347-4.93-0.774-6.988-0.81
		c-6.325-0.112-11.421,3.45-13.184,9.037c-1.696,5.373,0.17,11.19,4.716,14.704c4.946,3.824,10.88,3.912,15.949,0.239
		c4.936-3.577,6.72-9.203,4.776-15.241c-0.543-1.688-1.231-3.329-1.883-5.074c1.708-1.913,3.239-3.628,3.994-4.473
		c6.139,0.315,11.551,1.738,16.273,0.511c4.708-1.223,8.726-5.105,13.633-8.189c2.358,0.936,5.497,2.164,8.622,3.427
		c4.971,2.01,9.956,3.272,11.191,10.245c0.86,4.855,7.617,6.959,12.292,5.321c5.339-1.871,8.417-7.132,7.223-12.344
		c-1.14-4.977-5.78-8.55-11.04-7.955c-2.212,0.25-4.252,1.766-6.462,2.374c-1.862,0.512-4.093,1.228-5.748,0.657
		c-5.335-1.843-10.479-4.239-15.211-6.218c-0.527-5.205-0.969-9.565-1.458-14.392c2.574-1.708,5.334-3.54,7.742-5.138
		c9.772,3.539,15.424,1.642,17.129-5.286c1.393-5.659-2.311-11.293-8.025-12.209c-6.803-1.09-10.764,3.46-12.006,14.101
		c-2.401,1.561-4.993,3.247-7.606,4.947c-6.402-4.448-12.473-8.025-20.561-5.537c-8.244,2.536-11.453,9.153-14.189,15.577
		c-4.728,1.767-5.139-2.159-7.004-4.02c-3.345-3.338-7.876-3.547-11.238-0.61c-2.98,2.604-3.662,6.537-1.719,9.915
		C720.583,395.443,725.449,396.891,729.384,394.883z"/>
	<path d="M430.132,302.807c-21.677-0.116-43.356-0.111-65.034-0.007c-6.365,0.03-7.14,0.897-7.18,7.362
		c-0.092,14.887-0.097,29.775,0.001,44.662c0.043,6.432,0.796,7.175,7.268,7.249c10.707,0.122,21.416,0.033,32.125,0.03
		c10.97-0.003,21.941,0.106,32.908-0.046c6.011-0.083,6.717-0.835,6.758-6.938c0.1-15.148,0.1-30.297-0.005-45.445
		C436.932,303.665,436.186,302.839,430.132,302.807z M428.335,354.622c-5.967,1.655-53.208,1.9-61.775,0.258
		c0-11.729,0-23.57,0-36.215c20.923,0,41.108,0,61.775,0C428.335,330.964,428.335,342.812,428.335,354.622z"/>
	<path d="M584.754,114.586c5.466-5.646,11.569-10.745,16.537-17.137c-7.79-3.42-14.629-6.422-21.969-9.645
		c-10.725,7.362-23.336,9.996-36.167,10.567c-2.476,15.637-0.731,39.996,6.94,50.847c5.741-5.715,11.382-11.318,17.009-16.934
		C573.001,126.399,578.959,120.571,584.754,114.586z"/>
	<path d="M586.706,178.624c15.174-11.057,24.802-25.774,28.97-44.064c0.48-2.106,0.757-4.258,1.227-6.959
		c-16.067,16.394-31.475,32.115-47.051,48.007c0.613,0.52,1.913,1.753,3.342,2.811C580.002,183.458,580.078,183.454,586.706,178.624
		z"/>
	<path d="M612.862,113.96c3.952-3.876,5.651-7.855,4.104-12.938c-20.206,20.034-40.27,39.927-60.756,60.238
		c0.974,1.109,2.406,2.741,4.06,4.623c1.624-1.394,2.849-2.316,3.924-3.388C580.406,146.306,596.507,130.003,612.862,113.96z"/>
	<path d="M267.187,615.601c-1.156-0.692-3.595-0.477-4.759,0.331c-2.693,1.869-4.963,4.349-7.58,6.741
		c-2.562-2.44-4.614-4.414-6.689-6.365c-1.635-1.537-3.493-2.662-5.482-0.803c-2.272,2.124-1.251,4.214,0.545,6.111
		c1.948,2.058,3.896,4.115,6.172,6.52c-1.968,2.114-3.702,4.007-5.469,5.868c-1.863,1.963-3.998,4.209-1.319,6.637
		c2.542,2.303,4.753,0.186,6.713-1.683c1.83-1.745,3.749-3.396,5.77-5.215c2.174,2.045,3.888,3.626,5.567,5.243
		c1.945,1.872,4.153,3.945,6.722,1.648c2.806-2.509,0.424-4.639-1.356-6.577c-1.728-1.88-3.459-3.756-5.422-5.887
		c2.486-2.673,4.63-4.912,6.697-7.221C268.906,619.155,269.409,616.932,267.187,615.601z"/>
	<path d="M385.787,346.523c4.887-5.002,9.872-9.906,14.8-14.868c1.541-1.552,2.833-3.184,0.089-5.919
		c-7.614,3.472-11.51,11.899-18.37,15.914c-3.081-0.574-4.393-4.82-9.33-1.608c2.026,2.43,3.69,4.571,5.509,6.572
		C380.894,349.263,383.305,349.063,385.787,346.523z"/>
	<path d="M410.381,344.031c-0.037,0.099,0.346,0.352,0.861,0.85c3.228-1.653,7.673-2.667,8.317-6.888
		c0.76-4.986-4.554-5.567-7.521-7.771c-0.185-0.137-0.507-0.09-1.195-0.194c-2.166,3.581,1.69,4.803,2.007,6.835
		C413.194,339.065,411.273,341.616,410.381,344.031z"/>
</g>
</svg>
