<?xml version="1.0" encoding="utf-8"?>
<!-- Generator: Adobe Illustrator 17.0.0, SVG Export Plug-In . SVG Version: 6.00 Build 0)  -->
<!DOCTYPE svg PUBLIC "-//W3C//DTD SVG 1.1//EN" "http://www.w3.org/Graphics/SVG/1.1/DTD/svg11.dtd">
<svg version="1.1" id="Layer_1" xmlns="http://www.w3.org/2000/svg" xmlns:xlink="http://www.w3.org/1999/xlink" x="0px" y="0px"
	 width="1824.308px" height="1062.288px" viewBox="0 0 1824.308 1062.288" enable-background="new 0 0 1824.308 1062.288"
	 xml:space="preserve">
<g>
	<g>
		<path display="none" fill="#FFFFFF" stroke="#3D4351" stroke-width="6" stroke-miterlimit="10" d="M218.713,478.045
			c6.289,0,10.482-4.29,10.482-10.724V31.925c0-8.579,8.385-17.158,16.771-17.158h1157.178c8.385,0,16.771,8.579,16.771,17.158
			v326.011c0,6.434,4.193,10.724,10.482,10.724s10.482-4.29,10.482-10.724V31.925c0-21.448-16.771-38.607-37.734-38.607H245.965
			c-20.963,0-37.734,17.158-37.734,38.607v435.396C208.231,471.611,212.424,478.045,218.713,478.045z"/>
		<path display="none" fill="#FFFFFF" stroke="#3D4351" stroke-width="6" stroke-miterlimit="10" d="M497.525,748.291h306.065
			c6.289,0,10.482-4.29,10.482-10.724s-4.193-10.724-10.482-10.724H497.525c-6.289,0-10.482,4.29-10.482,10.724
			S491.236,748.291,497.525,748.291z"/>
		<path display="none" fill="#FFFFFF" stroke="#3D4351" stroke-width="6" stroke-miterlimit="10" d="M811.976,666.788
			c0-6.434-4.193-10.724-10.482-10.724h-383.63c-6.289,0-10.482,4.29-10.482,10.724s4.193,10.724,10.482,10.724h383.63
			C805.687,677.512,811.976,671.078,811.976,666.788z"/>
		<path display="none" fill="#FFFFFF" stroke="#3D4351" stroke-width="6" stroke-miterlimit="10" d="M1361.216,368.66
			c6.289,0,10.482-4.29,10.482-10.724V74.822c0-6.434-4.193-10.724-10.482-10.724H287.892c-6.289,0-10.482,4.29-10.482,10.724v392.5
			c0,6.434,4.193,10.724,10.482,10.724c6.289,0,10.482-4.29,10.482-10.724V85.546h1054.457v274.535
			C1350.734,364.371,1354.927,368.66,1361.216,368.66z M287.892,478.045"/>
		<path display="none" fill="#FFFFFF" stroke="#3D4351" stroke-width="6" stroke-miterlimit="10" d="M696.677,1035.695h-50.312l0,0
			l48.216-36.462c2.096-2.145,4.193-4.29,4.193-8.579l12.578-130.833h94.335c6.289,0,10.482-4.29,10.482-10.724
			c0-6.434-4.193-10.724-10.482-10.724H497.525c-6.289,0-10.482,4.29-10.482,10.724c0,6.435,4.193,10.724,10.482,10.724h190.767
			L675.714,984.22l-52.408,38.607c-2.096,2.145-4.193,4.289-4.193,8.579c0,2.145,0,10.724,6.289,17.158
			c2.096,4.29,8.385,6.434,18.867,6.434h52.408c6.289,0,10.482-4.289,10.482-10.724
			C707.159,1037.84,702.966,1035.695,696.677,1035.695z"/>
		<path display="none" fill="#FFFFFF" stroke="#3D4351" stroke-width="6" stroke-miterlimit="10" d="M1648.414,945.613V463.032
			c0-6.434-4.193-10.724-10.482-10.724H893.733c-6.289,0-10.482,4.29-10.482,10.724v482.582c0,6.434,4.193,10.724,10.482,10.724
			h744.199C1644.221,956.337,1648.414,952.048,1648.414,945.613z M1627.451,934.889H904.215V473.756h723.236V934.889z"/>
		<path display="none" fill="#FFFFFF" stroke="#3D4351" stroke-width="6" stroke-miterlimit="10" d="M1799.35,984.22h-100.624
			V424.425c0-19.303-16.771-36.462-35.638-36.462H868.577c-18.867,0-35.638,17.158-35.638,36.462V984.22H732.315
			c-12.578,0-23.06,10.724-23.06,23.593v12.869c0,21.448,96.431,36.462,96.431,36.462h918.195c0,0,96.432-15.014,96.432-36.462
			v-12.869C1822.41,994.944,1811.928,984.22,1799.35,984.22z M853.903,424.425c0-8.579,6.289-15.014,14.674-15.014h792.415
			c8.385,0,14.674,6.434,14.674,15.014V984.22h-297.68c-2.096,0-6.289,2.145-8.385,4.29s-2.096,4.29-2.096,6.435l0,0
			c0,0,0,2.145-2.096,2.145h-199.152c0,0-2.096,0-2.096-2.145l0,0c0-2.145,0-6.435-2.096-8.579c-2.096-2.145-4.193-4.29-8.385-4.29
			H853.903V424.425z M1801.447,1016.392c-14.674,6.435-67.083,19.303-75.468,19.303H809.879c-8.385,0-60.794-12.869-77.564-19.303
			v-8.579c0,0,0-2.145,2.096-2.145h412.978c4.193,8.579,12.578,12.869,20.963,12.869h199.152c8.385,0,16.771-6.435,20.963-12.869
			h412.978c0,0,2.096,0,2.096,2.145v8.579H1801.447z"/>
		<path display="none" fill="#FFFFFF" stroke="#3D4351" stroke-width="6" stroke-miterlimit="10" d="M262.736,1035.695H23.753
			c-6.289,0-10.482-4.29-10.482-10.724v-495.45c0-6.434,4.193-10.724,10.482-10.724h331.221c6.289,0,10.482,4.29,10.482,10.724
			v147.992c0,6.434,4.193,10.724,10.482,10.724s10.482-4.29,10.482-10.724V529.521c0-17.158-14.674-32.172-31.445-32.172H23.753
			c-16.771,0-31.445,15.014-31.445,32.172v495.45c0,17.159,14.674,32.172,31.445,32.172h238.982c6.289,0,10.482-4.29,10.482-10.724
			S266.928,1035.695,262.736,1035.695z"/>
		<path display="none" fill="#FFFFFF" stroke="#3D4351" stroke-width="6" stroke-miterlimit="10" d="M340.3,688.236
			c6.289,0,10.482-4.29,10.482-10.724V559.548c0-6.434-4.193-10.724-10.482-10.724H38.428c-6.289,0-10.482,4.29-10.482,10.724
			V984.22c0,6.434,4.193,10.724,10.482,10.724h224.308c6.289,0,10.482-4.29,10.482-10.724c0-6.435-4.193-10.724-10.482-10.724
			H48.909V570.272h280.909v107.24C329.818,683.947,334.011,688.236,340.3,688.236z"/>
		
			<ellipse display="none" fill="#FFFFFF" stroke="#3D4351" stroke-width="6" stroke-miterlimit="10" cx="189.364" cy="533.81" rx="6.289" ry="6.434"/>
		
			<ellipse display="none" fill="#FFFFFF" stroke="#3D4351" stroke-width="6" stroke-miterlimit="10" cx="189.364" cy="1016.392" rx="12.578" ry="12.869"/>
		<path display="none" fill="#FFFFFF" stroke="#3D4351" stroke-width="6" stroke-miterlimit="10" d="M436.732,709.684H321.433
			c-16.771,0-31.445,15.014-31.445,32.172v30.027v214.481v40.751c0,17.159,14.674,32.172,31.445,32.172h115.298
			c16.771,0,31.445-15.014,31.445-32.172v-40.751V771.884v-32.172C468.177,722.553,455.599,709.684,436.732,709.684z
			 M323.529,731.132h115.298c6.289,0,10.482,4.29,10.482,10.724v19.303H315.144v-21.448
			C313.048,735.422,317.24,731.132,323.529,731.132z M447.213,973.496H313.048V780.463h134.166V973.496z M436.732,1035.695H321.433
			c-6.289,0-10.482-4.29-10.482-10.724v-30.027h134.166v30.027C447.213,1031.405,443.021,1035.695,436.732,1035.695z"/>
		
			<ellipse display="none" fill="#FFFFFF" stroke="#3D4351" stroke-width="6" stroke-miterlimit="10" cx="380.131" cy="1016.392" rx="12.578" ry="12.869"/>
		
			<ellipse fill="#FFFFFF" stroke="#3D4351" stroke-width="6" stroke-miterlimit="10" cx="189.364" cy="1016.392" rx="9.834" ry="10.061"/>
		
			<ellipse fill="#FFFFFF" stroke="#3D4351" stroke-width="6" stroke-miterlimit="10" cx="380.131" cy="1016.392" rx="9.834" ry="10.061"/>
		<path fill="none" stroke="#3D4351" stroke-width="6" stroke-miterlimit="10" d="M218.865,467.244l-0.61-438.592
			c0,0,4.878-23.084,26.831-24.955S1403.682,4.32,1403.682,4.32s26.221,3.119,26.221,24.332s0,330.036,0,330.036"/>
		<polyline fill="none" stroke="#3D4351" stroke-width="6" stroke-miterlimit="10" points="288.381,467.244 288.381,75.443 
			1360.997,75.443 1360.997,357.44 		"/>
		<polyline fill="none" stroke="#3D4351" stroke-width="6" stroke-miterlimit="10" points="340.212,677.512 340.212,560.203 
			37.758,560.203 37.758,983.822 263.989,983.822 		"/>
		<path fill="none" stroke="#3D4351" stroke-width="6" stroke-miterlimit="10" d="M262.16,1046.835H20.684
			c0,0-17.684-4.367-17.684-21.836c0-17.469,0-497.623,0-497.623s0.499-18.956,24.946-18.956s327.511,0,327.511,0
			s20.123,1.726,20.123,18.956c0,17.23,0,150.136,0,150.136"/>
		
			<line fill="none" stroke="#3D4351" stroke-width="6" stroke-miterlimit="10" x1="416.436" y1="666.788" x2="804.261" y2="666.788"/>
		
			<line fill="none" stroke="#3D4351" stroke-width="6" stroke-miterlimit="10" x1="496.928" y1="737.567" x2="804.261" y2="737.567"/>
		
			<line fill="none" stroke="#3D4351" stroke-width="6" stroke-miterlimit="10" x1="496.928" y1="849.063" x2="804.261" y2="849.063"/>
		<polyline fill="none" stroke="#3D4351" stroke-width="6" stroke-miterlimit="10" points="707.159,1044.275 622.21,1044.275 
			679.666,985.491 700.597,849.063 		"/>
		
			<rect x="893.9" y="463.501" fill="none" stroke="#3D4351" stroke-width="6" stroke-miterlimit="10" width="743.941" height="481.641"/>
		<path fill="none" stroke="#3D4351" stroke-width="6" stroke-miterlimit="10" d="M1687.233,994.428c0,0,101.834,0,112.201,0
			c10.366,0,16.241-2.847,21.123,9.286c4.882,12.133-15.635,21.285-15.635,21.285l-76.833,23.084H807.31
			c0,0-18.294-4.367-56.1-13.102c-37.807-8.734-34.072-21.134-34.072-21.134c0-18.787,18.827-19.263,18.827-19.263h108.541h307.181
			l15.397,15.753h196.656l15.55-15.909H1687.233c0,0,0-549.644,0-571.48s-21.952-22.46-21.952-22.46s-775.65,0-797.602,0
			s-24.391,24.955-24.391,24.955l1.219,569.141"/>
		<path fill="none" stroke="#3D4351" stroke-width="6" stroke-miterlimit="10" d="M301.796,771.884v-31.378
			c0,0,1.083-18.335,17.92-18.335c16.837,0,120.501,0,120.501,0s16.366,0.18,16.366,16.744c0,16.564,0,32.968,0,32.968v211.938
			v45.439c0,0-3.152,18.407-17.991,18.407s-117.283,0-117.283,0s-18.752-3.225-18.752-19.186c0-3.873-0.045-20.976-0.113-44.66
			C302.232,909.904,301.796,771.884,301.796,771.884z"/>
		
			<line fill="none" stroke="#3D4351" stroke-width="6" stroke-miterlimit="10" x1="456.583" y1="983.822" x2="302.444" y2="983.822"/>
		
			<line fill="none" stroke="#3D4351" stroke-width="6" stroke-miterlimit="10" x1="456.583" y1="771.884" x2="301.796" y2="771.884"/>
	</g>
	<g>
		<path fill="#010101" stroke="#3D4351" stroke-width="3" stroke-miterlimit="10" d="M728.374,338.457
			c-4.716,0-8.552-3.924-8.552-8.75c0-4.825,3.836-8.75,8.552-8.75c4.714,0,8.552,3.924,8.552,8.75
			C736.926,334.533,733.088,338.457,728.374,338.457z M728.374,322.8c-3.723,0-6.751,3.099-6.751,6.907s3.029,6.907,6.751,6.907
			c3.723,0,6.751-3.099,6.751-6.907S732.094,322.8,728.374,322.8z"/>
		<path fill="#010101" stroke="#3D4351" stroke-width="3" stroke-miterlimit="10" d="M887.707,338.457
			c-4.714,0-8.552-3.924-8.552-8.75c0-4.825,3.838-8.75,8.552-8.75c4.716,0,8.552,3.924,8.552,8.75
			C896.259,334.533,892.424,338.457,887.707,338.457z M887.707,322.8c-3.723,0-6.751,3.099-6.751,6.907s3.029,6.907,6.751,6.907
			c3.725,0,6.751-3.099,6.751-6.907S891.432,322.8,887.707,322.8z"/>
		<path fill="#010101" stroke="#3D4351" stroke-width="3" stroke-miterlimit="10" d="M857.714,277.605H723.493
			c-2.081,0-3.146-2.066-3.229-3.119c-1.069-13.502-2.88-34.358-4.203-49.587c-1.144-13.19-1.694-19.551-1.694-20.028
			c0-1.522,1.128-2.555,1.944-2.715l151.896-29.951c0.726-2.039,3.741-9.19,10.954-11.643c6.144-2.09,26.406-7.082,27.267-7.293
			c0.069-0.016,0.5-0.106,1.115-0.106c2.56,0,4.371,1.455,4.966,3.993c0.91,3.874-1.68,5.913-3.177,6.451l-16.906,4.33
			c-0.664,2.579-3.548,13.484-5.589,16.509c-2.039,3.019-6.075,3.346-7.715,3.346c-0.004,0-0.008,0-0.012,0l-20.519,89.101
			C858.495,277.31,858.132,277.605,857.714,277.605z M907.542,155.004c-0.424,0-0.716,0.061-0.72,0.061
			c-0.182,0.045-21.021,5.176-27.092,7.242c-7.372,2.508-9.954,10.882-9.978,10.966c-0.097,0.327-0.365,0.572-0.692,0.635
			l-152.408,30.056c-0.05,0.022-0.484,0.319-0.484,0.907c0.012,0.55,0.787,9.501,1.688,19.866
			c1.323,15.231,3.132,36.093,4.203,49.599c0.02,0.252,0.456,1.429,1.434,1.429h133.509l20.527-89.127
			c0.103-0.444,0.5-0.743,0.954-0.706c0.02,0.002,0.258,0.022,0.639,0.022c1.357,0,4.677-0.25,6.232-2.551
			c2.092-3.099,5.43-16.319,5.466-16.453c0.081-0.327,0.333-0.582,0.653-0.664l17.346-4.44c0.2-0.081,2.683-1.108,1.942-4.259
			C910.357,155.873,909.274,155.004,907.542,155.004z"/>
		<path fill="#010101" stroke="#3D4351" stroke-width="3" stroke-miterlimit="10" d="M832.879,273.441
			c-0.105,0-0.208-0.018-0.313-0.057c-0.464-0.177-0.702-0.708-0.531-1.185l35.985-99.399c0.173-0.477,0.688-0.718,1.156-0.546
			c0.466,0.177,0.704,0.708,0.534,1.183l-35.985,99.403C833.587,273.211,833.243,273.441,832.879,273.441z"/>
		<path fill="#010101" stroke="#3D4351" stroke-width="3" stroke-miterlimit="10" d="M889.712,318.45h-5.317
			c-0.258,0-0.502-0.114-0.674-0.306c-0.797-0.917-19.599-22.52-22.493-26.229c-2.541-3.257-6.4-3.293-6.563-3.293l-31.594-0.513
			c-0.484,0.045-4.746,0.457-7.414,1.197c-1.813,0.501-24.639,7.124-44.779,12.966c-12.178,3.531-23.191,6.725-27.483,7.965
			c-10.323,2.983-10.882,6.788-10.886,6.826c-0.054,0.463-0.442,0.842-0.898,0.842c-0.002,0-0.006,0-0.01,0l-3.979-0.047
			c-0.452-0.006-0.829-0.353-0.885-0.812c-0.048-0.41-0.99-10.085,14.786-14.271c15.2-4.036,65.007-18.812,69.37-20.261
			c4.627-1.534,9.873-1.698,10.091-1.704h29.179c0.002-0.002,0.625-0.026,1.587-0.026c4.298,0,9.794,0.44,11.567,2.53
			c0.99,1.165,5.781,6.481,10.857,12.112c6.444,7.149,13.106,14.541,14.353,16.051c2.475,3.001,2.092,6.055,2.075,6.183
			C890.541,318.111,890.163,318.45,889.712,318.45z M884.8,316.609h4.02c-0.071-0.893-0.399-2.411-1.668-3.947
			c-1.22-1.479-8.169-9.188-14.3-15.992c-5.083-5.639-9.885-10.964-10.892-12.153c-0.992-1.169-4.903-1.897-10.206-1.897
			c-0.938,0-1.539,0.026-1.547,0.026h-29.194c-0.026,0.002-5.184,0.164-9.562,1.615c-4.373,1.451-54.256,16.252-69.474,20.294
			c-5.908,1.567-10.109,4.2-12.142,7.611c-0.948,1.589-1.222,3.011-1.293,3.857l2.382,0.028c0.605-1.605,2.945-4.98,11.983-7.589
			c4.292-1.24,15.303-4.434,27.481-7.967c20.145-5.842,42.976-12.465,44.799-12.97c2.973-0.826,7.578-1.24,7.775-1.258
			c0.03-0.002,0.06-0.004,0.091-0.004l31.598,0.513c0.002,0,0.002,0,0.004,0c0.522,0,4.962,0.118,7.979,3.987
			C865.314,294.199,882.438,313.892,884.8,316.609z"/>
	</g>
	<g>
		<g>
			<path fill="#010101" stroke="#3D4351" stroke-miterlimit="10" d="M507.292,338.574h-92.687c-13.69,0-24.687-11.251-24.687-25.257
				V201.954c0-14.006,10.997-25.257,24.687-25.257c1.347,0,2.244,0.918,2.244,2.296c0,1.378-0.898,2.296-2.244,2.296
				c-11.221,0-20.198,9.184-20.198,20.665v111.362c0,11.481,8.977,20.665,20.198,20.665h92.911c11.221,0,20.198-9.185,20.198-20.665
				V201.954c0-11.481-8.977-20.665-20.198-20.665c-1.347,0-2.244-0.918-2.244-2.296c0-1.378,0.898-2.296,2.244-2.296
				c13.69,0,24.687,11.251,24.687,25.257v111.362C531.978,327.323,520.982,338.574,507.292,338.574z"/>
		</g>
		<g>
			<path fill="#010101" stroke="#3D4351" stroke-miterlimit="10" d="M476.321,189.785h-30.746c-6.284,0-11.221-5.051-11.221-11.481
				v-4.822c0-6.429,4.937-11.481,11.221-11.481c1.347,0,2.244,0.918,2.244,2.296c0,1.378-0.898,2.296-2.244,2.296
				c-3.815,0-6.733,2.985-6.733,6.888v4.822c0,3.903,2.918,6.888,6.733,6.888h30.97c3.815,0,6.733-2.985,6.733-6.888v-4.822
				c0-3.903-2.918-6.888-6.733-6.888c-1.347,0-2.244-0.918-2.244-2.296c0-1.378,0.898-2.296,2.244-2.296
				c6.284,0,11.221,5.051,11.221,11.481v4.822C487.542,184.504,482.605,189.785,476.321,189.785z"/>
		</g>
		<g>
			<path fill="#010101" stroke="#3D4351" stroke-miterlimit="10" d="M460.836,173.253c-5.386,0-9.875-4.592-9.875-10.103
				s4.488-10.103,9.875-10.103s9.875,4.592,9.875,10.103S466.222,173.253,460.836,173.253z M460.836,157.869
				c-2.918,0-5.386,2.526-5.386,5.511c0,2.985,2.469,5.511,5.386,5.511s5.386-2.526,5.386-5.511
				C466.222,160.395,463.754,157.869,460.836,157.869z"/>
		</g>
		<g>
			<path fill="#010101" stroke="#3D4351" stroke-miterlimit="10" d="M473.179,287.141c-0.898,0-1.795-0.459-2.02-1.378
				l-7.182-18.599l-2.693,8.036c-0.224,0.918-1.122,1.607-2.02,1.607h-40.396c-1.347,0-2.244-0.918-2.244-2.296
				c0-1.378,0.898-2.296,2.244-2.296h38.601l4.264-12.169c0.224-0.918,1.122-1.607,2.02-1.607l0,0c0.898,0,1.795,0.459,2.02,1.378
				l6.957,18.139l8.079-28.931c0.224-0.918,1.122-1.607,2.244-1.607l0,0c1.122,0,1.795,0.689,2.02,1.837l4.713,22.961h13.914
				c1.347,0,2.244,0.918,2.244,2.296c0,1.378-0.898,2.296-2.244,2.296h-15.71c-1.122,0-2.02-0.689-2.244-1.837l-3.366-15.614
				l-7.406,26.635C475.199,286.452,474.301,287.141,473.179,287.141C473.404,287.141,473.179,287.141,473.179,287.141z"/>
		</g>
		<g>
			<path fill="#010101" stroke="#3D4351" stroke-miterlimit="10" d="M507.965,337.655c-1.347,0-2.244-0.918-2.244-2.296v-14.695
				c0-5.281,4.264-9.644,9.426-9.644h14.363c1.346,0,2.244,0.918,2.244,2.296s-0.898,2.296-2.244,2.296h-14.363
				c-2.693,0-4.937,2.296-4.937,5.051v14.695C510.209,336.507,509.087,337.655,507.965,337.655z"/>
		</g>
		<g>
			<path fill="#010101" stroke="#3D4351" stroke-miterlimit="10" d="M429.192,237.085c-1.347,0-2.244-0.918-2.244-2.296v-26.405
				c0-1.378,0.898-2.296,2.244-2.296s2.244,0.918,2.244,2.296v26.405C431.437,235.937,430.539,237.085,429.192,237.085z"/>
		</g>
		<g>
			<path fill="#010101" stroke="#3D4351" stroke-miterlimit="10" d="M429.192,237.085c-1.347,0-2.244-0.918-2.244-2.296v-26.405
				c0-1.378,0.898-2.296,2.244-2.296s2.244,0.918,2.244,2.296v26.405C431.437,235.937,430.539,237.085,429.192,237.085z"/>
		</g>
		<g>
			<path fill="#010101" stroke="#3D4351" stroke-miterlimit="10" d="M442.209,223.768H416.4c-1.347,0-2.244-0.918-2.244-2.296
				s0.898-2.296,2.244-2.296h25.809c1.347,0,2.244,0.918,2.244,2.296S443.331,223.768,442.209,223.768z"/>
		</g>
		<g>
			<path fill="#010101" stroke="#3D4351" stroke-miterlimit="10" d="M502.803,214.124h-41.967c-1.347,0-2.244-0.918-2.244-2.296
				s0.898-2.296,2.244-2.296h41.967c1.347,0,2.244,0.918,2.244,2.296S503.925,214.124,502.803,214.124z"/>
		</g>
		<g>
			<path fill="#010101" stroke="#3D4351" stroke-miterlimit="10" d="M502.803,223.308h-41.967c-1.347,0-2.244-0.918-2.244-2.296
				s0.898-2.296,2.244-2.296h41.967c1.347,0,2.244,0.918,2.244,2.296S503.925,223.308,502.803,223.308z"/>
		</g>
		<g>
			<path fill="#010101" stroke="#3D4351" stroke-miterlimit="10" d="M502.803,232.493h-41.967c-1.347,0-2.244-0.918-2.244-2.296
				s0.898-2.296,2.244-2.296h41.967c1.347,0,2.244,0.918,2.244,2.296S503.925,232.493,502.803,232.493z"/>
		</g>
	</g>
	<g>
		<g>
			<path fill="none" d="M1173.904,218.005c-8.208,0-15.048,6.998-15.048,15.396v8.398h30.096v-8.398
				C1188.952,225.003,1182.112,218.005,1173.904,218.005z"/>
			<path fill="#010101" d="M1195.792,242.498l-0.684-8.398c0-11.897-9.576-21.694-21.204-21.694
				c-11.628,0-21.204,9.797-21.204,21.694v8.398c-4.104,0-7.524,3.499-7.524,7.698v39.889c0,4.199,3.42,7.698,7.524,7.698h42.408
				c4.788,0,8.208-3.499,8.208-7.698v-39.889C1203.316,245.997,1199.896,242.498,1195.792,242.498z M1180.744,283.088h-6.156h-1.368
				h-5.472l3.42-12.597c-2.736-1.4-4.104-3.499-4.104-6.298c0-4.199,3.42-6.998,6.84-6.998c4.104,0,6.84,3.499,6.84,6.998
				c0,2.799-1.368,4.899-3.42,6.298L1180.744,283.088z M1188.952,241.798h-30.096v-8.398c0-8.398,6.84-15.396,15.048-15.396
				s15.048,6.998,15.048,15.396V241.798z"/>
		</g>
		<g>
			<path fill="#010101" stroke="#010101" stroke-width="3" stroke-miterlimit="10" d="M1216.327,165.982h-2.252v34.788
				l-40.532-37.092l-93.224,85.473l1.576,1.613l30.399-27.646v104.825h123.173V223.118l30.399,27.646l1.576-1.613l-51.116-46.307
				V165.982z M1232.99,221.274v104.364h-118.669V221.274h-0.225l59.672-54.601L1232.99,221.274L1232.99,221.274z"/>
		</g>
	</g>
	<g>
		<path fill="none" d="M189.004,754.032c-6.965,0-12.77,5.939-12.77,13.065v7.126h25.539v-7.126
			C201.774,759.97,195.97,754.032,189.004,754.032z"/>
		<path fill="#010101" d="M207.578,774.817l-0.58-7.126c0-10.096-8.126-18.41-17.994-18.41c-9.868,0-17.994,8.314-17.994,18.41
			v7.126c-3.483,0-6.385,2.969-6.385,6.532v33.85c0,3.563,2.902,6.532,6.385,6.532h35.987c4.063,0,6.965-2.969,6.965-6.532v-33.85
			C213.963,777.786,211.061,774.817,207.578,774.817z M194.809,809.261h-5.224h-1.161h-4.644l2.902-10.69
			c-2.322-1.188-3.483-2.969-3.483-5.345c0-3.563,2.902-5.939,5.804-5.939c3.483,0,5.804,2.969,5.804,5.939
			c0,2.375-1.161,4.157-2.902,5.345L194.809,809.261z M201.774,774.223h-25.539v-7.126c0-7.126,5.804-13.065,12.77-13.065
			c6.965,0,12.77,5.939,12.77,13.065V774.223z"/>
	</g>
	<g>
		<path fill="#010101" stroke="#010101" stroke-width="4" stroke-miterlimit="10" d="M225.005,709.885h-1.911v29.521l-34.396-31.476
			l-79.11,72.532l1.338,1.369l25.797-23.461v88.955h104.524V758.37l25.797,23.461l1.338-1.369l-43.377-39.296V709.885z
			 M239.145,756.806v88.564H138.443v-88.564h-0.191l50.638-46.335L239.145,756.806L239.145,756.806z"/>
	</g>
	<g>
		<path fill="#010101" d="M1402.321,520.203h-6.657v80.236l-119.827-85.549l-275.602,197.136l4.66,3.72l89.87-63.764v241.77h364.141
			v-241.77l89.87,63.764l4.66-3.72l-151.115-106.804V520.203z M1451.583,647.731v240.708h-350.827V647.731h-0.666l176.412-125.933
			L1451.583,647.731L1451.583,647.731z"/>
	</g>
	<g>
		<g>
			<path fill="#010101" stroke="#3D4351" stroke-width="4" stroke-miterlimit="10" d="M1178.649,865.466h-17.683
				c-0.439,0-0.794,0.364-0.794,0.813s0.355,0.813,0.794,0.813h17.683c0.439,0,0.794-0.364,0.794-0.813
				S1179.088,865.466,1178.649,865.466z"/>
			<path fill="#010101" stroke="#3D4351" stroke-width="4" stroke-miterlimit="10" d="M1178.649,869.651h-17.683
				c-0.439,0-0.794,0.363-0.794,0.813c0,0.449,0.355,0.812,0.794,0.812h17.683c0.439,0,0.794-0.364,0.794-0.812
				C1179.443,870.014,1179.088,869.651,1178.649,869.651z"/>
			<path fill="#010101" stroke="#3D4351" stroke-width="4" stroke-miterlimit="10" d="M1176.375,873.834h-13.135
				c-0.439,0-0.794,0.364-0.794,0.813s0.355,0.813,0.794,0.813h13.135c0.439,0,0.794-0.364,0.794-0.813
				S1176.814,873.834,1176.375,873.834z"/>
			<path fill="#010101" stroke="#3D4351" stroke-width="4" stroke-miterlimit="10" d="M1169.887,804.136h-0.159
				c-13.137,0-23.825,10.935-23.825,24.376c0,5.439,1.712,10.581,4.951,14.881c0.022,0.041,0.047,0.081,0.075,0.117
				c4.294,5.544,7.269,11.802,8.848,18.614l0.04,0.162c0.088,0.362,0.406,0.616,0.77,0.616h18.441c0.365,0,0.682-0.254,0.77-0.616
				l0.042-0.172c1.576-6.802,4.553-13.062,8.846-18.604c0.028-0.036,0.053-0.075,0.074-0.116c3.241-4.3,4.953-9.444,4.953-14.883
				C1193.713,815.071,1183.025,804.136,1169.887,804.136z M1187.423,842.507c-0.025,0.033-0.047,0.068-0.067,0.103
				c-4.298,5.58-7.309,11.86-8.952,18.668h-17.193c-1.645-6.812-4.654-13.087-8.951-18.666c-0.02-0.037-0.043-0.071-0.068-0.104
				c-3.075-4.034-4.701-8.875-4.701-13.994c0-12.545,9.975-22.751,22.236-22.751h0.159c12.261,0,22.237,10.206,22.237,22.751
				C1192.124,833.633,1190.498,838.473,1187.423,842.507z"/>
			<path fill="#010101" stroke="#3D4351" stroke-width="4" stroke-miterlimit="10" d="M1169.808,795.824
				c0.439,0,0.794-0.364,0.794-0.813v-14.385c0-0.449-0.355-0.813-0.794-0.813s-0.794,0.364-0.794,0.813v14.385
				C1169.013,795.46,1169.369,795.824,1169.808,795.824z"/>
			<path fill="#010101" stroke="#3D4351" stroke-width="4" stroke-miterlimit="10" d="M1153.401,800.317
				c0.135,0,0.271-0.035,0.396-0.109c0.38-0.224,0.51-0.721,0.291-1.11l-7.03-12.457c-0.221-0.389-0.707-0.524-1.085-0.297
				c-0.38,0.224-0.51,0.721-0.291,1.11l7.03,12.457C1152.859,800.17,1153.126,800.317,1153.401,800.317z"/>
			<path fill="#010101" stroke="#3D4351" stroke-width="4" stroke-miterlimit="10" d="M1141.783,811.085l-12.177-7.193
				c-0.38-0.228-0.866-0.092-1.085,0.297c-0.22,0.389-0.089,0.886,0.291,1.11l12.177,7.193c0.125,0.075,0.261,0.109,0.396,0.109
				c0.275,0,0.542-0.146,0.689-0.406C1142.294,811.806,1142.163,811.309,1141.783,811.085z"/>
			<path fill="#010101" stroke="#3D4351" stroke-width="4" stroke-miterlimit="10" d="M1136.985,827.759h-14.06
				c-0.439,0-0.795,0.364-0.795,0.813c0,0.449,0.355,0.812,0.795,0.812h14.06c0.439,0,0.795-0.363,0.795-0.812
				C1137.779,828.122,1137.424,827.759,1136.985,827.759z"/>
			<path fill="#010101" stroke="#3D4351" stroke-width="4" stroke-miterlimit="10" d="M1216.669,827.781h-14.06
				c-0.439,0-0.794,0.363-0.794,0.813c0,0.449,0.355,0.813,0.794,0.813h14.06c0.439,0,0.794-0.364,0.794-0.813
				C1217.464,828.144,1217.108,827.781,1216.669,827.781z"/>
			<path fill="#010101" stroke="#3D4351" stroke-width="4" stroke-miterlimit="10" d="M1211.083,804.208
				c-0.22-0.389-0.706-0.525-1.085-0.297l-12.177,7.193c-0.38,0.224-0.51,0.721-0.291,1.11c0.147,0.26,0.414,0.406,0.689,0.406
				c0.135,0,0.271-0.035,0.396-0.109l12.177-7.193C1211.172,805.093,1211.303,804.597,1211.083,804.208z"/>
			<path fill="#010101" stroke="#3D4351" stroke-width="4" stroke-miterlimit="10" d="M1193.64,786.353
				c-0.38-0.227-0.866-0.092-1.085,0.297l-7.031,12.459c-0.22,0.389-0.089,0.886,0.291,1.11c0.125,0.075,0.262,0.11,0.396,0.11
				c0.275,0,0.542-0.146,0.689-0.406l7.031-12.459C1194.15,787.073,1194.02,786.577,1193.64,786.353z"/>
		</g>
	</g>
	<g>
		<g>
			<path fill="#010101" stroke="#3D4351" stroke-miterlimit="10" d="M1403.066,842.117v-48.926c0-5.603-4.542-10.25-10.018-10.25
				s-10.018,4.647-10.018,10.25v48.926c-4.942,3.417-8.015,9.156-8.015,15.306c0,10.113,8.148,18.45,18.033,18.45
				s18.033-8.337,18.033-18.45C1411.081,851.273,1408.009,845.533,1403.066,842.117z M1393.048,871.773
				c-7.747,0-14.026-6.423-14.026-14.35c0-5.057,2.672-9.84,7.08-12.436c0.668-0.41,0.935-1.093,0.935-1.777v-50.019
				c0-3.417,2.672-6.15,6.011-6.15s6.011,2.733,6.011,6.15v50.019c0,0.683,0.401,1.367,0.935,1.777
				c4.274,2.597,7.08,7.38,7.08,12.436C1407.074,865.35,1400.796,871.773,1393.048,871.773z"/>
			<path fill="#010101" stroke="#3D4351" stroke-miterlimit="10" d="M1395.052,847.446V825.99c0-1.093-0.935-2.05-2.004-2.05
				s-2.004,0.957-2.004,2.05v21.456c-4.542,0.957-8.015,5.057-8.015,9.977c0,5.603,4.542,10.25,10.018,10.25
				s10.018-4.647,10.018-10.25C1403.066,852.503,1399.594,848.266,1395.052,847.446z"/>
		</g>
	</g>
	<g>
		<polyline fill="none" stroke="#010101" stroke-width="5" stroke-linecap="round" stroke-miterlimit="10" points="
			1240.433,637.802 1265.691,646.442 1280.244,601.908 		"/>
		<polygon fill="none" stroke="#010101" stroke-width="5" stroke-linecap="round" stroke-miterlimit="10" points="1300.297,619.306 
			1263.78,585.905 1281.891,565.178 1318.408,598.578 		"/>
		
			<line fill="none" stroke="#010101" stroke-width="5" stroke-linecap="round" stroke-miterlimit="10" x1="1310.36" y1="618.737" x2="1319.482" y2="608.298"/>
		<path fill="none" stroke="#010101" stroke-width="5" stroke-linecap="round" stroke-miterlimit="10" d="M1238.655,595.894
			c8.836-4.48,10.075-9.746,13.152-19.2c2.135-6.557,1.862-7.811,8.268-6.307c4.769,1.116,9.334,2.041,14.006,3.03"/>
	</g>
	<polyline fill="none" stroke="#010101" stroke-width="6" stroke-linecap="round" stroke-miterlimit="10" points="1171.188,772.401 
		1171.188,729.66 1259.587,729.66 	"/>
	
		<ellipse fill="none" stroke="#010101" stroke-width="5" stroke-linecap="round" stroke-miterlimit="10" cx="1283.82" cy="729.66" rx="15.204" ry="15.556"/>
	<polyline fill="none" stroke="#010101" stroke-width="6" stroke-linecap="round" stroke-miterlimit="10" points="1311.876,729.66 
		1393.048,729.66 1393.048,772.401 	"/>
	
		<line fill="none" stroke="#010101" stroke-width="6" stroke-linecap="round" stroke-miterlimit="10" x1="1285.197" y1="704.321" x2="1285.197" y2="646.442"/>
	<g>
		<path fill="#010101" stroke="#3D4351" stroke-width="2" stroke-miterlimit="10" d="M429.635,867.019
			c-0.104-0.711-0.621-1.275-1.299-1.446l-5.261-1.298c-3.054-0.747-5.285-2.486-6.254-4.899c-0.985-2.409-0.613-5.254,1.034-7.998
			l2.82-4.714c0.361-0.605,0.327-1.384-0.083-1.958c-3.118-4.39-6.869-8.227-11.16-11.416c-0.559-0.419-1.318-0.454-1.912-0.086
			l-4.606,2.887c-1.681,1.05-3.434,1.598-5.094,1.598c-3.624,0-6.508-2.657-7.523-6.939l-1.256-5.385
			c-0.17-0.689-0.73-1.22-1.416-1.326c-5.199-0.835-10.577-0.835-15.776,0c-0.687,0.106-1.246,0.637-1.405,1.326l-1.269,5.385
			c-1.012,4.281-3.899,6.939-7.523,6.939c-1.658,0-3.413-0.548-5.092-1.598l-4.608-2.887c-0.591-0.368-1.352-0.333-1.912,0.086
			c-4.289,3.189-8.039,7.027-11.157,11.416c-0.413,0.574-0.443,1.353-0.085,1.958l2.823,4.714c1.648,2.743,2.007,5.589,1.033,7.998
			c-0.972,2.413-3.192,4.152-6.253,4.899l-5.264,1.298c-0.675,0.171-1.193,0.735-1.299,1.446c-0.401,2.661-0.613,5.373-0.613,8.066
			c0,2.702,0.212,5.416,0.613,8.073c0.105,0.704,0.623,1.275,1.299,1.439l5.264,1.299c3.061,0.753,5.282,2.496,6.253,4.906
			c0.974,2.413,0.613,5.254-1.033,8.002l-2.823,4.712c-0.359,0.606-0.327,1.383,0.085,1.956c3.117,4.389,6.868,8.228,11.157,11.416
			c0.561,0.424,1.321,0.454,1.912,0.076l4.608-2.875c1.679-1.048,3.434-1.61,5.092-1.61c3.625,0,6.511,2.671,7.523,6.951
			l1.269,5.384c0.16,0.693,0.718,1.212,1.405,1.331c2.599,0.41,5.252,0.626,7.893,0.626c2.633,0,5.284-0.216,7.882-0.626
			c0.687-0.119,1.247-0.638,1.416-1.331l1.256-5.384c1.015-4.28,3.9-6.951,7.523-6.951c1.66,0,3.413,0.562,5.094,1.61l4.606,2.875
			c0.594,0.378,1.354,0.348,1.912-0.076c4.291-3.188,8.042-7.027,11.16-11.416c0.41-0.573,0.443-1.35,0.083-1.956l-2.82-4.712
			c-1.649-2.748-2.019-5.589-1.034-8.002c0.97-2.41,3.2-4.153,6.254-4.906l5.261-1.299c0.678-0.162,1.196-0.735,1.299-1.439
			c0.401-2.657,0.612-5.372,0.612-8.073C430.247,872.391,430.036,869.68,429.635,867.019z M426.39,881.452l-4.119,1.014
			c-4.163,1.026-7.239,3.505-8.646,6.983c-1.405,3.482-0.95,7.451,1.279,11.191l2.221,3.697c-2.537,3.383-5.494,6.4-8.803,8.994
			l-3.614-2.259c-2.216-1.384-4.595-2.12-6.888-2.12c-5.22,0-9.49,3.783-10.874,9.653l-0.992,4.217
			c-4.109,0.551-8.325,0.551-12.436,0l-0.993-4.217c-1.386-5.87-5.654-9.653-10.874-9.653c-2.291,0-4.669,0.736-6.888,2.12
			l-3.614,2.259c-3.305-2.594-6.267-5.611-8.792-8.994l2.198-3.697c2.24-3.74,2.694-7.709,1.288-11.191
			c-1.412-3.478-4.478-5.957-8.64-6.983l-4.124-1.014c-0.274-2.11-0.401-4.238-0.401-6.368c0-2.118,0.128-4.258,0.401-6.359
			l4.124-1.015c4.162-1.027,7.227-3.503,8.64-6.983c1.405-3.48,0.951-7.458-1.288-11.188l-2.199-3.697
			c2.526-3.384,5.488-6.411,8.792-9.006l3.614,2.259c2.219,1.395,4.598,2.13,6.888,2.13c5.22,0,9.488-3.793,10.874-9.654
			l0.993-4.216c4.111-0.554,8.326-0.554,12.436,0l0.992,4.216c1.384,5.86,5.654,9.654,10.886,9.654c2.281,0,4.658-0.734,6.876-2.13
			l3.614-2.259c3.309,2.594,6.266,5.622,8.803,9.006l-2.22,3.697c-2.229,3.729-2.683,7.708-1.279,11.188
			c1.406,3.48,4.482,5.957,8.646,6.983l4.119,1.015c0.267,2.1,0.414,4.241,0.414,6.359
			C426.805,877.215,426.656,879.342,426.39,881.452z"/>
		<path fill="#010101" stroke="#3D4351" stroke-width="2" stroke-miterlimit="10" d="M379.742,846.102
			c-0.962,0-1.735,0.789-1.735,1.764c0,0.972,0.773,1.759,1.735,1.759c13.716,0,24.882,11.429,24.882,25.461
			c0,0.972,0.771,1.773,1.722,1.773c0.951,0,1.722-0.801,1.722-1.773C408.07,859.108,395.357,846.102,379.742,846.102z"/>
		<path fill="#010101" stroke="#3D4351" stroke-width="2" stroke-miterlimit="10" d="M397.335,893.095
			c-4.702,4.809-10.945,7.459-17.593,7.459c-6.656,0-12.903-2.649-17.602-7.459c-9.7-9.925-9.7-26.085,0-36.009
			c0.675-0.691,0.675-1.806,0-2.497c-0.678-0.692-1.767-0.692-2.443,0c-11.042,11.309-11.042,29.695,0,41.004
			c5.359,5.472,12.469,8.485,20.046,8.485c7.565,0,14.678-3.013,20.032-8.485c0.677-0.69,0.677-1.806,0-2.497
			C399.1,892.401,398.011,892.401,397.335,893.095z"/>
		<path fill="#010101" stroke="#3D4351" stroke-width="2" stroke-miterlimit="10" d="M379.742,890.467
			c8.284,0,15.026-6.898,15.026-15.382c0-8.477-6.742-15.373-15.026-15.373c-8.295,0-15.034,6.896-15.034,15.373
			C364.708,883.569,371.447,890.467,379.742,890.467z M379.742,863.235c6.381,0,11.58,5.321,11.58,11.85
			c0,6.542-5.2,11.849-11.58,11.849c-6.395,0-11.58-5.309-11.58-11.849C368.161,868.556,373.348,863.235,379.742,863.235z"/>
	</g>
</g>
</svg>
